Montserrat-Black.ufo
<glyph name="ampersand" format="2">
  <advance width="777"/>
  <unicode hex="0026"/>
  <outline>
    <contour>
      <point x="318" y="-16" type="curve" smooth="yes"/>
      <point x="534" y="-16"/>
      <point x="701" y="131"/>
      <point x="747" y="338" type="curve"/>
      <point x="566" y="392" type="line"/>
      <point x="539" y="241"/>
      <point x="442" y="152"/>
      <point x="335" y="152" type="curve" smooth="yes"/>
      <point x="279" y="152"/>
      <point x="247" y="179"/>
      <point x="247" y="212" type="curve" smooth="yes"/>
      <point x="247" y="255"/>
      <point x="278" y="285"/>
      <point x="359" y="316" type="curve" smooth="yes"/>
      <point x="513" y="374"/>
      <point x="586" y="438"/>
      <point x="586" y="535" type="curve" smooth="yes"/>
      <point x="586" y="643"/>
      <point x="493" y="712"/>
      <point x="354" y="712" type="curve" smooth="yes"/>
      <point x="202" y="712"/>
      <point x="102" y="635"/>
      <point x="102" y="523" type="curve" smooth="yes"/>
      <point x="102" y="464"/>
      <point x="134" y="407"/>
      <point x="202" y="351" type="curve" smooth="yes"/>
      <point x="626" y="-13" type="line"/>
      <point x="747" y="124" type="line"/>
      <point x="379" y="437" type="line" smooth="yes"/>
      <point x="320" y="487"/>
      <point x="307" y="503"/>
      <point x="307" y="526" type="curve" smooth="yes"/>
      <point x="307" y="549"/>
      <point x="324" y="566"/>
      <point x="355" y="566" type="curve" smooth="yes"/>
      <point x="383" y="566"/>
      <point x="397" y="551"/>
      <point x="397" y="530" type="curve" smooth="yes"/>
      <point x="397" y="502"/>
      <point x="366" y="474"/>
      <point x="266" y="436" type="curve" smooth="yes"/>
      <point x="101" y="374"/>
      <point x="26" y="303"/>
      <point x="26" y="187" type="curve" smooth="yes"/>
      <point x="26" y="70"/>
      <point x="150" y="-16"/>
    </contour>
  </outline>
</glyph>
<glyph name="asterisk" format="2">
  <advance width="473"/>
  <unicode hex="002A"/>
  <outline>
    <contour>
      <point x="467" y="583" type="line"/>
      <point x="398" y="695" type="line"/>
      <point x="283" y="624" type="line"/>
      <point x="300" y="614" type="line"/>
      <point x="303" y="742" type="line"/>
      <point x="169" y="742" type="line"/>
      <point x="172" y="614" type="line"/>
      <point x="189" y="624" type="line"/>
      <point x="74" y="695" type="line"/>
      <point x="6" y="583" type="line"/>
      <point x="134" y="515" type="line"/>
      <point x="134" y="549" type="line"/>
      <point x="6" y="481" type="line"/>
      <point x="74" y="369" type="line"/>
      <point x="189" y="440" type="line"/>
      <point x="172" y="450" type="line"/>
      <point x="169" y="322" type="line"/>
      <point x="303" y="322" type="line"/>
      <point x="300" y="450" type="line"/>
      <point x="283" y="440" type="line"/>
      <point x="398" y="369" type="line"/>
      <point x="467" y="481" type="line"/>
      <point x="339" y="549" type="line"/>
      <point x="339" y="515" type="line"/>
    </contour>
  </outline>
</glyph>
<glyph name="two" format="2">
  <advance width="608"/>
  <unicode hex="0032"/>
  <outline>
    <contour>
      <point x="28" y="0" type="line"/>
      <point x="589" y="0" type="line"/>
      <point x="589" y="183" type="line"/>
      <point x="226" y="183" type="line"/>
      <point x="263" y="101" type="line"/>
      <point x="453" y="274" type="line" smooth="yes"/>
      <point x="555" y="366"/>
      <point x="573" y="428"/>
      <point x="573" y="497" type="curve" smooth="yes"/>
      <point x="573" y="630"/>
      <point x="456" y="716"/>
      <point x="290" y="716" type="curve" smooth="yes"/>
      <point x="139" y="716"/>
      <point x="38" y="650"/>
      <point x="-13" y="554" type="curve"/>
      <point x="165" y="465" type="line"/>
      <point x="186" y="507"/>
      <point x="226" y="530"/>
      <point x="268" y="530" type="curve" smooth="yes"/>
      <point x="313" y="530"/>
      <point x="336" y="509"/>
      <point x="336" y="475" type="curve" smooth="yes"/>
      <point x="336" y="451"/>
      <point x="329" y="424"/>
      <point x="281" y="379" type="curve" smooth="yes"/>
      <point x="28" y="145" type="line"/>
    </contour>
  </outline>
</glyph>
<glyph name="E" format="2">
  <advance width="673"/>
  <unicode hex="0045"/>
  <anchor x="342" y="0" name="bottom"/>
  <anchor x="639" y="0" name="ogonek"/>
  <anchor x="342" y="700" name="top"/>
  <anchor x="-9" y="700" name="topleft"/>
  <outline>
    <contour>
      <point x="273" y="440" type="line"/>
      <point x="273" y="270" type="line"/>
      <point x="585" y="270" type="line"/>
      <point x="585" y="440" type="line"/>
    </contour>
    <contour>
      <point x="289" y="178" type="line"/>
      <point x="289" y="522" type="line"/>
      <point x="626" y="522" type="line"/>
      <point x="626" y="700" type="line"/>
      <point x="57" y="700" type="line"/>
      <point x="57" y="0" type="line"/>
      <point x="639" y="0" type="line"/>
      <point x="639" y="178" type="line"/>
    </contour>
  </outline>
</glyph>
<glyph name="F" format="2">
  <advance width="644"/>
  <unicode hex="0046"/>
  <outline>
    <contour>
      <point x="277" y="402" type="line"/>
      <point x="277" y="224" type="line"/>
      <point x="585" y="224" type="line"/>
      <point x="585" y="402" type="line"/>
    </contour>
    <contour>
      <point x="293" y="0" type="line"/>
      <point x="293" y="522" type="line"/>
      <point x="626" y="522" type="line"/>
      <point x="626" y="700" type="line"/>
      <point x="57" y="700" type="line"/>
      <point x="57" y="0" type="line"/>
    </contour>
  </outline>
</glyph>
<glyph name="G" format="2">
  <advance width="769"/>
  <unicode hex="0047"/>
  <guideline x="425" y="328" angle="90"/>
  <anchor x="410" y="0" name="bottom"/>
  <anchor x="424" y="701" name="top"/>
  <outline>
    <contour>
      <point x="420" y="-16" type="curve" smooth="yes"/>
      <point x="523" y="-16"/>
      <point x="640" y="15"/>
      <point x="725" y="73" type="curve"/>
      <point x="593" y="235" type="line"/>
      <point x="536" y="191"/>
      <point x="487" y="175"/>
      <point x="434" y="175" type="curve" smooth="yes"/>
      <point x="333" y="175"/>
      <point x="267" y="245"/>
      <point x="267" y="350" type="curve" smooth="yes"/>
      <point x="267" y="458"/>
      <point x="333" y="525"/>
      <point x="437" y="525" type="curve" smooth="yes"/>
      <point x="499" y="525"/>
      <point x="550" y="499"/>
      <point x="594" y="448" type="curve"/>
      <point x="745" y="581" type="line"/>
      <point x="674" y="668"/>
      <point x="563" y="716"/>
      <point x="425" y="716" type="curve" smooth="yes"/>
      <point x="194" y="716"/>
      <point x="29" y="565"/>
      <point x="29" y="350" type="curve" smooth="yes"/>
      <point x="29" y="135"/>
      <point x="194" y="-16"/>
    </contour>
    <contour>
      <point x="520" y="103" type="line"/>
      <point x="725" y="73" type="line"/>
      <point x="725" y="369" type="line"/>
      <point x="520" y="369" type="line"/>
    </contour>
  </outline>
</glyph>
<glyph name="O" format="2">
  <advance width="848"/>
  <unicode hex="004F"/>
  <guideline x="819" y="664" angle="90"/>
  <anchor x="424" y="0" name="bottom"/>
  <anchor x="424" y="350" name="center"/>
  <anchor x="547" y="0" name="ogonek"/>
  <anchor x="424" y="700" name="top"/>
  <anchor x="34" y="700" name="topleft"/>
  <anchor x="590" y="700" name="topright"/>
  <outline>
    <contour>
      <point x="424" y="-16" type="curve" smooth="yes"/>
      <point x="652" y="-16"/>
      <point x="819" y="138"/>
      <point x="819" y="350" type="curve" smooth="yes"/>
      <point x="819" y="562"/>
      <point x="652" y="716"/>
      <point x="424" y="716" type="curve" smooth="yes"/>
      <point x="196" y="716"/>
      <point x="29" y="562"/>
      <point x="29" y="350" type="curve" smooth="yes"/>
      <point x="29" y="138"/>
      <point x="196" y="-16"/>
    </contour>
    <contour>
      <point x="424" y="175" type="curve" smooth="yes"/>
      <point x="337" y="175"/>
      <point x="267" y="241"/>
      <point x="267" y="350" type="curve" smooth="yes"/>
      <point x="267" y="459"/>
      <point x="337" y="525"/>
      <point x="424" y="525" type="curve" smooth="yes"/>
      <point x="511" y="525"/>
      <point x="581" y="459"/>
      <point x="581" y="350" type="curve" smooth="yes"/>
      <point x="581" y="241"/>
      <point x="511" y="175"/>
    </contour>
  </outline>
</glyph>
<glyph name="Q" format="2">
  <advance width="848"/>
  <unicode hex="0051"/>
  <anchor x="425" y="700" name="top"/>
  <outline>
    <contour>
      <point x="424" y="-16" type="curve" smooth="yes"/>
      <point x="652" y="-16"/>
      <point x="819" y="138"/>
      <point x="819" y="350" type="curve" smooth="yes"/>
      <point x="819" y="562"/>
      <point x="652" y="716"/>
      <point x="424" y="716" type="curve" smooth="yes"/>
      <point x="196" y="716"/>
      <point x="29" y="562"/>
      <point x="29" y="350" type="curve" smooth="yes"/>
      <point x="29" y="138"/>
      <point x="196" y="-16"/>
    </contour>
    <contour>
      <point x="653" y="-177" type="curve" smooth="yes"/>
      <point x="737" y="-177"/>
      <point x="808" y="-146"/>
      <point x="857" y="-88" type="curve"/>
      <point x="755" y="32" type="line"/>
      <point x="726" y="3"/>
      <point x="692" y="-13"/>
      <point x="658" y="-13" type="curve" smooth="yes"/>
      <point x="616" y="-13"/>
      <point x="593" y="6"/>
      <point x="546" y="80" type="curve"/>
      <point x="302" y="20" type="line"/>
      <point x="442" y="-133"/>
      <point x="521" y="-177"/>
    </contour>
    <contour>
      <point x="424" y="175" type="curve" smooth="yes"/>
      <point x="337" y="175"/>
      <point x="267" y="241"/>
      <point x="267" y="350" type="curve" smooth="yes"/>
      <point x="267" y="459"/>
      <point x="337" y="525"/>
      <point x="424" y="525" type="curve" smooth="yes"/>
      <point x="511" y="525"/>
      <point x="581" y="459"/>
      <point x="581" y="350" type="curve" smooth="yes"/>
      <point x="581" y="241"/>
      <point x="511" y="175"/>
    </contour>
  </outline>
</glyph>
<glyph name="V" format="2">
  <advance width="786"/>
  <unicode hex="0056"/>
  <guideline x="368" y="350" angle="113.6122"/>
  <outline>
    <contour>
      <point x="277" y="0" type="line"/>
      <point x="509" y="0" type="line"/>
      <point x="805" y="700" type="line"/>
      <point x="573" y="700" type="line"/>
      <point x="325" y="109" type="line"/>
      <point x="476" y="109" type="line"/>
      <point x="235" y="700" type="line"/>
      <point x="-19" y="700" type="line"/>
    </contour>
  </outline>
</glyph>
<glyph name="asciicircum" format="2">
  <advance width="620"/>
  <unicode hex="005E"/>
  <outline>
    <contour>
      <point x="36" y="139" type="line"/>
      <point x="206" y="139" type="line"/>
      <point x="359" y="508" type="line"/>
      <point x="261" y="508" type="line"/>
      <point x="414" y="139" type="line"/>
      <point x="584" y="139" type="line"/>
      <point x="399" y="561" type="line"/>
      <point x="221" y="561" type="line"/>
    </contour>
  </outline>
</glyph>
<glyph name="e" format="2">
  <advance width="653"/>
  <unicode hex="0065"/>
  <guideline x="477" y="80" angle="90"/>
  <anchor x="327" y="0" name="bottom"/>
  <anchor x="553" y="0" name="ogonek"/>
  <anchor x="327" y="547" name="top"/>
  <outline>
    <contour>
      <point x="352" y="-10" type="curve" smooth="yes"/>
      <point x="461" y="-10"/>
      <point x="538" y="20"/>
      <point x="591" y="78" type="curve"/>
      <point x="473" y="197" type="line"/>
      <point x="437" y="170"/>
      <point x="409" y="157"/>
      <point x="359" y="157" type="curve" smooth="yes"/>
      <point x="285" y="157"/>
      <point x="242" y="196"/>
      <point x="242" y="267" type="curve" smooth="yes"/>
      <point x="242" y="301" type="line" smooth="yes"/>
      <point x="242" y="364"/>
      <point x="277" y="403"/>
      <point x="333" y="403" type="curve" smooth="yes"/>
      <point x="388" y="403"/>
      <point x="424" y="364"/>
      <point x="424" y="301" type="curve"/>
      <point x="509" y="330" type="line"/>
      <point x="208" y="330" type="line"/>
      <point x="208" y="221" type="line"/>
      <point x="629" y="221" type="line"/>
      <point x="630" y="237"/>
      <point x="632" y="258"/>
      <point x="632" y="274" type="curve" smooth="yes"/>
      <point x="632" y="459"/>
      <point x="493" y="557"/>
      <point x="331" y="557" type="curve" smooth="yes"/>
      <point x="154" y="557"/>
      <point x="21" y="440"/>
      <point x="21" y="274" type="curve" smooth="yes"/>
      <point x="21" y="111"/>
      <point x="151" y="-10"/>
    </contour>
  </outline>
</glyph>
<glyph name="k" format="2">
  <advance width="713"/>
  <unicode hex="006B"/>
  <anchor x="323" y="0" name="bottom"/>
  <anchor x="163" y="742" name="top"/>
  <anchor x="305" y="547" name="topright"/>
  <outline>
    <contour>
      <point x="239" y="90" type="line"/>
      <point x="337" y="194" type="line"/>
      <point x="450" y="285" type="line"/>
      <point x="700" y="547" type="line"/>
      <point x="433" y="547" type="line"/>
      <point x="244" y="356" type="line"/>
    </contour>
    <contour>
      <point x="50" y="0" type="line"/>
      <point x="276" y="0" type="line"/>
      <point x="276" y="742" type="line"/>
      <point x="50" y="742" type="line"/>
    </contour>
    <contour>
      <point x="445" y="0" type="line"/>
      <point x="718" y="0" type="line"/>
      <point x="434" y="361" type="line"/>
      <point x="295" y="190" type="line"/>
    </contour>
  </outline>
</glyph>
<glyph name="l" format="2">
  <advance width="326"/>
  <unicode hex="006C"/>
  <anchor x="163" y="0" name="bottom"/>
  <anchor x="163" y="370" name="center"/>
  <anchor x="416" y="370" name="dot"/>
  <anchor x="163" y="742" name="top"/>
  <anchor x="346" y="742" name="topright"/>
  <outline>
    <contour>
      <point x="50" y="0" type="line"/>
      <point x="276" y="0" type="line"/>
      <point x="276" y="742" type="line"/>
      <point x="50" y="742" type="line"/>
    </contour>
  </outline>
</glyph>
<glyph name="r" format="2">
  <advance width="456"/>
  <unicode hex="0072"/>
  <anchor x="163" y="0" name="bottom"/>
  <anchor x="245" y="547" name="top"/>
  <outline>
    <contour>
      <point x="50" y="0" type="line"/>
      <point x="276" y="0" type="line"/>
      <point x="276" y="243" type="line" smooth="yes"/>
      <point x="276" y="330"/>
      <point x="324" y="361"/>
      <point x="392" y="361" type="curve" smooth="yes"/>
      <point x="408" y="361"/>
      <point x="422" y="360"/>
      <point x="442" y="357" type="curve"/>
      <point x="442" y="557" type="line"/>
      <point x="339" y="557"/>
      <point x="263" y="514"/>
      <point x="230" y="429" type="curve"/>
      <point x="265" y="382" type="line"/>
      <point x="265" y="547" type="line"/>
      <point x="50" y="547" type="line"/>
    </contour>
  </outline>
</glyph>
<glyph name="u" format="2">
  <advance width="698"/>
  <unicode hex="0075"/>
  <anchor x="348" y="0" name="bottom"/>
  <anchor x="648" y="0" name="ogonek"/>
  <anchor x="348" y="547" name="top"/>
  <anchor x="535" y="547" name="topright"/>
  <outline>
    <contour>
      <point x="278" y="-10" type="curve" smooth="yes"/>
      <point x="361" y="-10"/>
      <point x="437" y="30"/>
      <point x="476" y="115" type="curve"/>
      <point x="433" y="158" type="line"/>
      <point x="433" y="0" type="line"/>
      <point x="648" y="0" type="line"/>
      <point x="648" y="547" type="line"/>
      <point x="422" y="547" type="line"/>
      <point x="422" y="290" type="line" smooth="yes"/>
      <point x="422" y="209"/>
      <point x="384" y="180"/>
      <point x="345" y="180" type="curve" smooth="yes"/>
      <point x="301" y="180"/>
      <point x="274" y="206"/>
      <point x="274" y="284" type="curve" smooth="yes"/>
      <point x="274" y="547" type="line"/>
      <point x="48" y="547" type="line"/>
      <point x="48" y="245" type="line" smooth="yes"/>
      <point x="48" y="67"/>
      <point x="147" y="-10"/>
    </contour>
  </outline>
</glyph>
<glyph name="w" format="2">
  <advance width="977"/>
  <unicode hex="0077"/>
  <anchor x="489" y="0" name="bottom"/>
  <anchor x="489" y="547" name="top"/>
  <outline>
    <contour>
      <point x="184" y="0" type="line"/>
      <point x="404" y="0" type="line"/>
      <point x="524" y="352" type="line"/>
      <point x="458" y="352" type="line"/>
      <point x="573" y="0" type="line"/>
      <point x="793" y="0" type="line"/>
      <point x="983" y="547" type="line"/>
      <point x="785" y="547" type="line"/>
      <point x="636" y="103" type="line"/>
      <point x="736" y="103" type="line"/>
      <point x="592" y="547" type="line"/>
      <point x="400" y="547" type="line"/>
      <point x="249" y="103" type="line"/>
      <point x="352" y="103" type="line"/>
      <point x="208" y="547" type="line"/>
      <point x="-6" y="547" type="line"/>
    </contour>
  </outline>
</glyph>
<glyph name="x" format="2">
  <advance width="645"/>
  <unicode hex="0078"/>
  <outline>
    <contour>
      <point x="-9" y="0" type="line"/>
      <point x="236" y="0" type="line"/>
      <point x="365" y="180" type="line"/>
      <point x="270" y="193" type="line"/>
      <point x="395" y="0" type="line"/>
      <point x="654" y="0" type="line"/>
      <point x="402" y="344" type="line"/>
      <point x="402" y="219" type="line"/>
      <point x="649" y="547" type="line"/>
      <point x="412" y="547" type="line"/>
      <point x="279" y="359" type="line"/>
      <point x="373" y="366" type="line"/>
      <point x="252" y="547" type="line"/>
      <point x="-3" y="547" type="line"/>
      <point x="243" y="208" type="line"/>
      <point x="249" y="338" type="line"/>
    </contour>
  </outline>
</glyph>
<glyph name="z" format="2">
  <advance width="570"/>
  <unicode hex="007A"/>
  <anchor x="290" y="0" name="bottom"/>
  <anchor x="290" y="547" name="top"/>
  <outline>
    <contour>
      <point x="30" y="0" type="line"/>
      <point x="552" y="0" type="line"/>
      <point x="552" y="165" type="line"/>
      <point x="213" y="165" type="line"/>
      <point x="250" y="93" type="line"/>
      <point x="541" y="417" type="line"/>
      <point x="541" y="547" type="line"/>
      <point x="38" y="547" type="line"/>
      <point x="38" y="382" type="line"/>
      <point x="358" y="382" type="line"/>
      <point x="321" y="454" type="line"/>
      <point x="30" y="130" type="line"/>
    </contour>
  </outline>
</glyph>
<glyph name="braceright" format="2">
  <advance width="438"/>
  <unicode hex="007D"/>
  <outline>
    <contour>
      <point x="84" y="-194" type="line" smooth="yes"/>
      <point x="239" y="-194"/>
      <point x="317" y="-116"/>
      <point x="317" y="19" type="curve" smooth="yes"/>
      <point x="317" y="145" type="line" smooth="yes"/>
      <point x="317" y="175"/>
      <point x="335" y="189"/>
      <point x="360" y="189" type="curve" smooth="yes"/>
      <point x="393" y="189" type="line"/>
      <point x="393" y="359" type="line"/>
      <point x="360" y="359" type="line" smooth="yes"/>
      <point x="335" y="359"/>
      <point x="317" y="373"/>
      <point x="317" y="403" type="curve" smooth="yes"/>
      <point x="317" y="529" type="line" smooth="yes"/>
      <point x="317" y="664"/>
      <point x="239" y="742"/>
      <point x="84" y="742" type="curve" smooth="yes"/>
      <point x="10" y="742" type="line"/>
      <point x="10" y="572" type="line"/>
      <point x="20" y="572" type="line" smooth="yes"/>
      <point x="67" y="572"/>
      <point x="91" y="547"/>
      <point x="91" y="503" type="curve" smooth="yes"/>
      <point x="91" y="408" type="line" smooth="yes"/>
      <point x="91" y="298"/>
      <point x="138" y="270"/>
      <point x="246" y="262" type="curve"/>
      <point x="246" y="286" type="line"/>
      <point x="138" y="278"/>
      <point x="91" y="250"/>
      <point x="91" y="140" type="curve" smooth="yes"/>
      <point x="91" y="45" type="line" smooth="yes"/>
      <point x="91" y="1"/>
      <point x="67" y="-24"/>
      <point x="20" y="-24" type="curve" smooth="yes"/>
      <point x="10" y="-24" type="line"/>
      <point x="10" y="-194" type="line"/>
    </contour>
  </outline>
</glyph>
<glyph name="currency" format="2">
  <advance width="700"/>
  <unicode hex="00A4"/>
  <outline>
    <contour>
      <point x="125" y="417" type="line"/>
      <point x="250" y="542" type="line"/>
      <point x="143" y="649" type="line"/>
      <point x="18" y="524" type="line"/>
    </contour>
    <contour>
      <point x="143" y="-14" type="line"/>
      <point x="250" y="93" type="line"/>
      <point x="125" y="218" type="line"/>
      <point x="18" y="111" type="line"/>
    </contour>
    <contour>
      <point x="556" y="-14" type="line"/>
      <point x="681" y="111" type="line"/>
      <point x="574" y="218" type="line"/>
      <point x="449" y="93" type="line"/>
    </contour>
    <contour>
      <point x="574" y="417" type="line"/>
      <point x="681" y="524" type="line"/>
      <point x="556" y="649" type="line"/>
      <point x="449" y="542" type="line"/>
    </contour>
    <contour>
      <point x="349" y="69" type="curve" smooth="yes"/>
      <point x="489" y="69"/>
      <point x="603" y="183"/>
      <point x="603" y="323" type="curve" smooth="yes"/>
      <point x="603" y="463"/>
      <point x="490" y="577"/>
      <point x="349" y="577" type="curve" smooth="yes"/>
      <point x="209" y="577"/>
      <point x="95" y="463"/>
      <point x="95" y="323" type="curve" smooth="yes"/>
      <point x="95" y="183"/>
      <point x="209" y="69"/>
    </contour>
    <contour>
      <point x="349" y="244" type="curve" smooth="yes"/>
      <point x="305" y="244"/>
      <point x="270" y="279"/>
      <point x="270" y="323" type="curve" smooth="yes"/>
      <point x="270" y="367"/>
      <point x="305" y="403"/>
      <point x="349" y="403" type="curve" smooth="yes"/>
      <point x="393" y="403"/>
      <point x="429" y="367"/>
      <point x="429" y="323" type="curve" smooth="yes"/>
      <point x="429" y="279"/>
      <point x="393" y="244"/>
    </contour>
  </outline>
</glyph>
<glyph name="yen" format="2">
  <advance width="770"/>
  <unicode hex="00A5"/>
  <outline>
    <contour>
      <point x="267" y="0" type="line"/>
      <point x="503" y="0" type="line"/>
      <point x="503" y="307" type="line"/>
      <point x="451" y="166" type="line"/>
      <point x="797" y="700" type="line"/>
      <point x="566" y="700" type="line"/>
      <point x="319" y="329" type="line"/>
      <point x="470" y="329" type="line"/>
      <point x="225" y="700" type="line"/>
      <point x="-27" y="700" type="line"/>
      <point x="321" y="166" type="line"/>
      <point x="267" y="307" type="line"/>
    </contour>
    <contour>
      <point x="107" y="60" type="line"/>
      <point x="663" y="60" type="line"/>
      <point x="663" y="172" type="line"/>
      <point x="107" y="172" type="line"/>
    </contour>
    <contour>
      <point x="107" y="198" type="line"/>
      <point x="663" y="198" type="line"/>
      <point x="663" y="310" type="line"/>
      <point x="107" y="310" type="line"/>
    </contour>
  </outline>
</glyph>
<glyph name="ordfeminine" format="2">
  <advance width="422"/>
  <unicode hex="00AA"/>
  <outline>
    <contour>
      <point x="244" y="420" type="line"/>
      <point x="386" y="420" type="line"/>
      <point x="386" y="593" type="line" smooth="yes"/>
      <point x="386" y="703"/>
      <point x="315" y="752"/>
      <point x="192" y="752" type="curve" smooth="yes"/>
      <point x="138" y="752"/>
      <point x="75" y="739"/>
      <point x="33" y="715" type="curve"/>
      <point x="81" y="622" type="line"/>
      <point x="104" y="638"/>
      <point x="139" y="647"/>
      <point x="166" y="647" type="curve" smooth="yes"/>
      <point x="214" y="647"/>
      <point x="233" y="630"/>
      <point x="233" y="601" type="curve" smooth="yes"/>
      <point x="233" y="492" type="line"/>
      <point x="244" y="477" type="line"/>
    </contour>
    <contour>
      <point x="146" y="414" type="curve" smooth="yes"/>
      <point x="206" y="414"/>
      <point x="241" y="437"/>
      <point x="252" y="485" type="curve"/>
      <point x="233" y="527" type="line"/>
      <point x="226" y="507"/>
      <point x="209" y="499"/>
      <point x="192" y="499" type="curve" smooth="yes"/>
      <point x="173" y="499"/>
      <point x="161" y="509"/>
      <point x="161" y="522" type="curve" smooth="yes"/>
      <point x="161" y="538"/>
      <point x="174" y="546"/>
      <point x="202" y="546" type="curve" smooth="yes"/>
      <point x="247" y="546" type="line"/>
      <point x="247" y="614" type="line"/>
      <point x="178" y="614" type="line" smooth="yes"/>
      <point x="68" y="614"/>
      <point x="17" y="580"/>
      <point x="17" y="516" type="curve" smooth="yes"/>
      <point x="17" y="460"/>
      <point x="60" y="414"/>
    </contour>
  </outline>
</glyph>
<glyph name="logicalnot" format="2">
  <advance width="620"/>
  <unicode hex="00AC"/>
  <outline>
    <contour>
      <point x="565" y="435" type="line"/>
      <point x="55" y="435" type="line"/>
      <point x="55" y="265" type="line"/>
      <point x="385" y="265" type="line"/>
      <point x="385" y="95" type="line"/>
      <point x="565" y="95" type="line"/>
    </contour>
  </outline>
</glyph>
<glyph name="plusminus" format="2">
  <advance width="620"/>
  <unicode hex="00B1"/>
  <outline>
    <contour>
      <point x="55" y="0" type="line"/>
      <point x="565" y="0" type="line"/>
      <point x="565" y="170" type="line"/>
      <point x="55" y="170" type="line"/>
    </contour>
    <contour>
      <point x="220" y="235" type="line"/>
      <point x="400" y="235" type="line"/>
      <point x="400" y="700" type="line"/>
      <point x="220" y="700" type="line"/>
    </contour>
    <contour>
      <point x="55" y="387" type="line"/>
      <point x="565" y="387" type="line"/>
      <point x="565" y="548" type="line"/>
      <point x="55" y="548" type="line"/>
    </contour>
  </outline>
</glyph>
<glyph name="periodcentered" format="2">
  <advance width="344"/>
  <unicode hex="00B7"/>
  <outline>
    <contour>
      <point x="172" y="159" type="curve" smooth="yes"/>
      <point x="250" y="159"/>
      <point x="304" y="211"/>
      <point x="304" y="290" type="curve" smooth="yes"/>
      <point x="304" y="369"/>
      <point x="250" y="419"/>
      <point x="172" y="419" type="curve" smooth="yes"/>
      <point x="94" y="419"/>
      <point x="40" y="369"/>
      <point x="40" y="290" type="curve" smooth="yes"/>
      <point x="40" y="211"/>
      <point x="94" y="159"/>
    </contour>
  </outline>
</glyph>
<glyph name="germandbls" format="2">
  <advance width="714"/>
  <unicode hex="00DF"/>
  <outline>
    <contour>
      <point x="430" y="-10" type="curve" smooth="yes"/>
      <point x="589" y="-10"/>
      <point x="693" y="72"/>
      <point x="693" y="213" type="curve" smooth="yes"/>
      <point x="693" y="347"/>
      <point x="589" y="421"/>
      <point x="412" y="421" type="curve"/>
      <point x="362" y="325" type="line"/>
      <point x="496" y="325"/>
      <point x="630" y="404"/>
      <point x="630" y="533" type="curve" smooth="yes"/>
      <point x="630" y="655"/>
      <point x="529" y="752"/>
      <point x="347" y="752" type="curve" smooth="yes"/>
      <point x="186" y="752"/>
      <point x="50" y="656"/>
      <point x="50" y="472" type="curve" smooth="yes"/>
      <point x="50" y="0" type="line"/>
      <point x="276" y="0" type="line"/>
      <point x="276" y="503" type="line" smooth="yes"/>
      <point x="276" y="551"/>
      <point x="304" y="578"/>
      <point x="348" y="578" type="curve" smooth="yes"/>
      <point x="387" y="578"/>
      <point x="413" y="551"/>
      <point x="413" y="511" type="curve" smooth="yes"/>
      <point x="413" y="470"/>
      <point x="382" y="443"/>
      <point x="336" y="441" type="curve"/>
      <point x="336" y="271" type="line"/>
      <point x="388" y="271" type="line" smooth="yes"/>
      <point x="438" y="271"/>
      <point x="464" y="253"/>
      <point x="464" y="219" type="curve" smooth="yes"/>
      <point x="464" y="184"/>
      <point x="435" y="166"/>
      <point x="396" y="166" type="curve" smooth="yes"/>
      <point x="372" y="166"/>
      <point x="351" y="170"/>
      <point x="330" y="178" type="curve"/>
      <point x="308" y="6" type="line"/>
      <point x="335" y="-4"/>
      <point x="388" y="-10"/>
    </contour>
  </outline>
</glyph>
<glyph name="divide" format="2">
  <advance width="620"/>
  <unicode hex="00F7"/>
  <outline>
    <contour>
      <point x="55" y="265" type="line"/>
      <point x="565" y="265" type="line"/>
      <point x="565" y="435" type="line"/>
      <point x="55" y="435" type="line"/>
    </contour>
    <contour>
      <point x="310" y="20" type="curve" smooth="yes"/>
      <point x="373" y="20"/>
      <point x="422" y="66"/>
      <point x="422" y="130" type="curve" smooth="yes"/>
      <point x="422" y="195"/>
      <point x="373" y="238"/>
      <point x="310" y="238" type="curve" smooth="yes"/>
      <point x="247" y="238"/>
      <point x="198" y="195"/>
      <point x="198" y="130" type="curve" smooth="yes"/>
      <point x="198" y="66"/>
      <point x="247" y="20"/>
    </contour>
    <contour>
      <point x="310" y="462" type="curve" smooth="yes"/>
      <point x="373" y="462"/>
      <point x="422" y="508"/>
      <point x="422" y="572" type="curve" smooth="yes"/>
      <point x="422" y="637"/>
      <point x="373" y="680"/>
      <point x="310" y="680" type="curve" smooth="yes"/>
      <point x="247" y="680"/>
      <point x="198" y="637"/>
      <point x="198" y="572" type="curve" smooth="yes"/>
      <point x="198" y="508"/>
      <point x="247" y="462"/>
    </contour>
  </outline>
</glyph>
<glyph name="eogonek" format="2">
  <advance width="653"/>
  <unicode hex="0119"/>
  <anchor x="338" y="0" name="bottom"/>
  <anchor x="338" y="547" name="top"/>
  <outline>
    <contour>
      <point x="464" y="-240" type="curve" smooth="yes"/>
      <point x="507" y="-240"/>
      <point x="553" y="-230"/>
      <point x="577" y="-217" type="curve"/>
      <point x="550" y="-124" type="line"/>
      <point x="535" y="-131"/>
      <point x="513" y="-138"/>
      <point x="493" y="-138" type="curve" smooth="yes"/>
      <point x="458" y="-138"/>
      <point x="438" y="-117"/>
      <point x="438" y="-89" type="curve" smooth="yes"/>
      <point x="438" y="-54"/>
      <point x="454" y="-18"/>
      <point x="549" y="41" type="curve" smooth="yes"/>
      <point x="565" y="51"/>
      <point x="579" y="64"/>
      <point x="592" y="78" type="curve"/>
      <point x="473" y="197" type="line"/>
      <point x="437" y="170"/>
      <point x="409" y="157"/>
      <point x="359" y="157" type="curve" smooth="yes"/>
      <point x="285" y="157"/>
      <point x="242" y="196"/>
      <point x="242" y="267" type="curve" smooth="yes"/>
      <point x="242" y="301" type="line" smooth="yes"/>
      <point x="242" y="364"/>
      <point x="277" y="403"/>
      <point x="333" y="403" type="curve" smooth="yes"/>
      <point x="388" y="403"/>
      <point x="424" y="364"/>
      <point x="424" y="301" type="curve"/>
      <point x="509" y="330" type="line"/>
      <point x="208" y="330" type="line"/>
      <point x="208" y="221" type="line"/>
      <point x="629" y="221" type="line"/>
      <point x="630" y="237"/>
      <point x="632" y="258"/>
      <point x="632" y="274" type="curve" smooth="yes"/>
      <point x="632" y="459"/>
      <point x="493" y="557"/>
      <point x="331" y="557" type="curve" smooth="yes"/>
      <point x="154" y="557"/>
      <point x="21" y="440"/>
      <point x="21" y="274" type="curve" smooth="yes"/>
      <point x="21" y="111"/>
      <point x="151" y="-10"/>
      <point x="352" y="-10" type="curve" smooth="yes"/>
      <point x="384" y="-10"/>
      <point x="412" y="-7"/>
      <point x="439" y="-2" type="curve"/>
      <point x="417" y="24" type="line"/>
      <point x="351" y="2"/>
      <point x="306" y="-55"/>
      <point x="306" y="-114" type="curve" smooth="yes"/>
      <point x="306" y="-192"/>
      <point x="364" y="-240"/>
    </contour>
  </outline>
</glyph>
<glyph name="idotless" format="2">
  <advance width="326"/>
  <unicode hex="0131"/>
  <anchor x="163" y="0" name="bottom"/>
  <anchor x="276" y="0" name="ogonek"/>
  <anchor x="163" y="547" name="top"/>
  <outline>
    <contour>
      <point x="50" y="0" type="line"/>
      <point x="276" y="0" type="line"/>
      <point x="276" y="547" type="line"/>
      <point x="50" y="547" type="line"/>
    </contour>
  </outline>
</glyph>
<glyph name="Eng" format="2">
  <advance width="804"/>
  <unicode hex="014A"/>
  <outline>
    <contour>
      <point x="57" y="0" type="line"/>
      <point x="287" y="0" type="line"/>
      <point x="287" y="426" type="line"/>
      <point x="197" y="426" type="line"/>
      <point x="553" y="0" type="line"/>
      <point x="607" y="274" type="line"/>
      <point x="251" y="700" type="line"/>
      <point x="57" y="700" type="line"/>
    </contour>
    <contour>
      <point x="461" y="-204" type="curve" smooth="yes"/>
      <point x="649" y="-204"/>
      <point x="747" y="-110"/>
      <point x="747" y="102" type="curve" smooth="yes"/>
      <point x="747" y="700" type="line"/>
      <point x="517" y="700" type="line"/>
      <point x="517" y="67" type="line" smooth="yes"/>
      <point x="517" y="10"/>
      <point x="490" y="-20"/>
      <point x="441" y="-20" type="curve" smooth="yes"/>
      <point x="417" y="-20"/>
      <point x="395" y="-11"/>
      <point x="372" y="5" type="curve"/>
      <point x="264" y="-153" type="line"/>
      <point x="318" y="-189"/>
      <point x="385" y="-204"/>
    </contour>
  </outline>
</glyph>
<glyph name="eng" format="2">
  <advance width="702"/>
  <unicode hex="014B"/>
  <outline>
    <contour>
      <point x="430" y="557" type="curve" smooth="yes"/>
      <point x="341" y="557"/>
      <point x="264" y="516"/>
      <point x="222" y="433" type="curve"/>
      <point x="265" y="387" type="line"/>
      <point x="265" y="547" type="line"/>
      <point x="50" y="547" type="line"/>
      <point x="50" y="0" type="line"/>
      <point x="276" y="0" type="line"/>
      <point x="276" y="257" type="line" smooth="yes"/>
      <point x="276" y="338"/>
      <point x="315" y="367"/>
      <point x="361" y="367" type="curve" smooth="yes"/>
      <point x="402" y="367"/>
      <point x="428" y="341"/>
      <point x="428" y="273" type="curve" smooth="yes"/>
      <point x="428" y="30" type="line" smooth="yes"/>
      <point x="428" y="-14"/>
      <point x="408" y="-33"/>
      <point x="381" y="-33" type="curve" smooth="yes"/>
      <point x="363" y="-33"/>
      <point x="345" y="-28"/>
      <point x="330" y="-20" type="curve"/>
      <point x="276" y="-177" type="line"/>
      <point x="311" y="-195"/>
      <point x="362" y="-204"/>
      <point x="415" y="-204" type="curve" smooth="yes"/>
      <point x="566" y="-204"/>
      <point x="654" y="-113"/>
      <point x="654" y="28" type="curve" smooth="yes"/>
      <point x="654" y="312" type="line" smooth="yes"/>
      <point x="654" y="484"/>
      <point x="556" y="557"/>
    </contour>
  </outline>
</glyph>
<glyph name="Ohorn" format="2">
  <advance width="848"/>
  <unicode hex="01A0"/>
  <anchor x="424" y="0" name="bottom"/>
  <anchor x="424" y="700" name="top"/>
  <outline>
    <contour>
      <point x="424" y="-16" type="curve" smooth="yes"/>
      <point x="652" y="-16"/>
      <point x="819" y="138"/>
      <point x="819" y="350" type="curve" smooth="yes"/>
      <point x="819" y="468"/>
      <point x="766" y="564"/>
      <point x="684" y="625" type="curve"/>
      <point x="424" y="591" type="line"/>
      <point x="479" y="584"/>
      <point x="535" y="574"/>
      <point x="600" y="574" type="curve" smooth="yes"/>
      <point x="732" y="574"/>
      <point x="820" y="633"/>
      <point x="820" y="752" type="curve" smooth="yes"/>
      <point x="820" y="797"/>
      <point x="806" y="834"/>
      <point x="783" y="863" type="curve"/>
      <point x="655" y="818" type="line"/>
      <point x="667" y="804"/>
      <point x="675" y="783"/>
      <point x="675" y="761" type="curve" smooth="yes"/>
      <point x="675" y="724"/>
      <point x="648" y="703"/>
      <point x="608" y="703" type="curve" smooth="yes"/>
      <point x="567" y="703"/>
      <point x="505" y="716"/>
      <point x="434" y="716" type="curve" smooth="yes"/>
      <point x="196" y="716"/>
      <point x="29" y="562"/>
      <point x="29" y="350" type="curve" smooth="yes"/>
      <point x="29" y="138"/>
      <point x="196" y="-16"/>
    </contour>
    <contour>
      <point x="424" y="175" type="curve" smooth="yes"/>
      <point x="337" y="175"/>
      <point x="267" y="241"/>
      <point x="267" y="350" type="curve" smooth="yes"/>
      <point x="267" y="459"/>
      <point x="337" y="525"/>
      <point x="424" y="525" type="curve" smooth="yes"/>
      <point x="511" y="525"/>
      <point x="581" y="459"/>
      <point x="581" y="350" type="curve" smooth="yes"/>
      <point x="581" y="241"/>
      <point x="511" y="175"/>
    </contour>
  </outline>
</glyph>
<glyph name="schwa" format="2">
  <advance width="653"/>
  <unicode hex="0259"/>
  <anchor x="326" y="0" name="bottom"/>
  <anchor x="100" y="547" name="ogonek"/>
  <anchor x="326" y="547" name="top"/>
  <outline>
    <contour>
      <point x="301" y="557" type="curve" smooth="yes"/>
      <point x="192" y="557"/>
      <point x="115" y="527"/>
      <point x="62" y="469" type="curve"/>
      <point x="180" y="350" type="line"/>
      <point x="216" y="377"/>
      <point x="244" y="390"/>
      <point x="294" y="390" type="curve" smooth="yes"/>
      <point x="368" y="390"/>
      <point x="411" y="351"/>
      <point x="411" y="280" type="curve" smooth="yes"/>
      <point x="411" y="246" type="line" smooth="yes"/>
      <point x="411" y="183"/>
      <point x="376" y="144"/>
      <point x="320" y="144" type="curve" smooth="yes"/>
      <point x="265" y="144"/>
      <point x="229" y="183"/>
      <point x="229" y="246" type="curve"/>
      <point x="144" y="217" type="line"/>
      <point x="445" y="217" type="line"/>
      <point x="445" y="326" type="line"/>
      <point x="24" y="326" type="line"/>
      <point x="23" y="310"/>
      <point x="21" y="289"/>
      <point x="21" y="273" type="curve" smooth="yes"/>
      <point x="21" y="88"/>
      <point x="160" y="-10"/>
      <point x="322" y="-10" type="curve" smooth="yes"/>
      <point x="499" y="-10"/>
      <point x="632" y="107"/>
      <point x="632" y="273" type="curve" smooth="yes"/>
      <point x="632" y="436"/>
      <point x="502" y="557"/>
    </contour>
  </outline>
</glyph>
<glyph name="firsttonechinese" format="2">
  <advance width="600"/>
  <unicode hex="02C9"/>
  <outline>
    <contour>
      <point x="90" y="628" type="line"/>
      <point x="510" y="628" type="line"/>
      <point x="510" y="746" type="line"/>
      <point x="90" y="746" type="line"/>
    </contour>
  </outline>
</glyph>
<glyph name="fourthtonechinese" format="2">
  <advance width="600"/>
  <unicode hex="02CB"/>
  <outline>
    <contour>
      <point x="255" y="607" type="line"/>
      <point x="405" y="607" type="line"/>
      <point x="273" y="767" type="line"/>
      <point x="58" y="767" type="line"/>
    </contour>
  </outline>
</glyph>
<glyph name="verticallinelowmod" format="2">
  <advance width="206"/>
  <unicode hex="02CC"/>
  <outline>
    <contour>
      <point x="29" y="-234" type="line"/>
      <point x="177" y="-234" type="line"/>
      <point x="177" y="-30" type="line"/>
      <point x="29" y="-30" type="line"/>
    </contour>
  </outline>
</glyph>
<glyph name="gravecomb" format="2">
  <unicode hex="0300"/>
  <anchor x="300" y="547" name="_top"/>
  <anchor x="300" y="760" name="top"/>
  <outline>
    <contour>
      <point x="255" y="607" type="line"/>
      <point x="405" y="607" type="line"/>
      <point x="273" y="767" type="line"/>
      <point x="58" y="767" type="line"/>
    </contour>
  </outline>
</glyph>
<glyph name="dotaccentcomb" format="2">
  <unicode hex="0307"/>
  <anchor x="300" y="709" name="_center"/>
  <anchor x="300" y="547" name="_top"/>
  <anchor x="300" y="800" name="top"/>
  <outline>
    <contour>
      <point x="300" y="597" type="curve" smooth="yes"/>
      <point x="367" y="597"/>
      <point x="414" y="644"/>
      <point x="414" y="711" type="curve" smooth="yes"/>
      <point x="414" y="778"/>
      <point x="367" y="825"/>
      <point x="300" y="825" type="curve" smooth="yes"/>
      <point x="233" y="825"/>
      <point x="186" y="778"/>
      <point x="186" y="711" type="curve" smooth="yes"/>
      <point x="186" y="644"/>
      <point x="233" y="597"/>
    </contour>
  </outline>
</glyph>
<glyph name="dieresiscomb" format="2">
  <unicode hex="0308"/>
  <anchor x="300" y="547" name="_top"/>
  <anchor x="300" y="740" name="top"/>
  <outline>
    <contour>
      <point x="411" y="599" type="curve" smooth="yes"/>
      <point x="462" y="599"/>
      <point x="501" y="634"/>
      <point x="501" y="687" type="curve" smooth="yes"/>
      <point x="501" y="740"/>
      <point x="462" y="776"/>
      <point x="411" y="776" type="curve" smooth="yes"/>
      <point x="360" y="776"/>
      <point x="321" y="740"/>
      <point x="321" y="687" type="curve" smooth="yes"/>
      <point x="321" y="634"/>
      <point x="360" y="599"/>
    </contour>
    <contour>
      <point x="189" y="599" type="curve" smooth="yes"/>
      <point x="240" y="599"/>
      <point x="279" y="634"/>
      <point x="279" y="687" type="curve" smooth="yes"/>
      <point x="279" y="740"/>
      <point x="240" y="776"/>
      <point x="189" y="776" type="curve" smooth="yes"/>
      <point x="138" y="776"/>
      <point x="99" y="740"/>
      <point x="99" y="687" type="curve" smooth="yes"/>
      <point x="99" y="634"/>
      <point x="138" y="599"/>
    </contour>
  </outline>
</glyph>
<glyph name="ringcomb" format="2">
  <unicode hex="030A"/>
  <anchor x="300" y="547" name="_top"/>
  <anchor x="300" y="830" name="top"/>
  <outline>
    <contour>
      <point x="300" y="590" type="curve" smooth="yes"/>
      <point x="379" y="590"/>
      <point x="440" y="649"/>
      <point x="440" y="724" type="curve" smooth="yes"/>
      <point x="440" y="799"/>
      <point x="379" y="858"/>
      <point x="300" y="858" type="curve" smooth="yes"/>
      <point x="221" y="858"/>
      <point x="160" y="799"/>
      <point x="160" y="724" type="curve" smooth="yes"/>
      <point x="160" y="649"/>
      <point x="221" y="590"/>
    </contour>
    <contour>
      <point x="300" y="670" type="curve" smooth="yes"/>
      <point x="270" y="670"/>
      <point x="246" y="692"/>
      <point x="246" y="724" type="curve" smooth="yes"/>
      <point x="246" y="756"/>
      <point x="270" y="778"/>
      <point x="300" y="778" type="curve" smooth="yes"/>
      <point x="330" y="778"/>
      <point x="354" y="756"/>
      <point x="354" y="724" type="curve" smooth="yes"/>
      <point x="354" y="692"/>
      <point x="330" y="670"/>
    </contour>
  </outline>
</glyph>
<glyph name="dblgravecomb" format="2">
  <unicode hex="030F"/>
  <anchor x="300" y="547" name="_top"/>
  <anchor x="300" y="760" name="top"/>
  <outline>
    <contour>
      <point x="342" y="607" type="line"/>
      <point x="492" y="607" type="line"/>
      <point x="440" y="767" type="line"/>
      <point x="245" y="767" type="line"/>
    </contour>
    <contour>
      <point x="108" y="607" type="line"/>
      <point x="258" y="607" type="line"/>
      <point x="206" y="767" type="line"/>
      <point x="11" y="767" type="line"/>
    </contour>
  </outline>
</glyph>
<glyph name="commaturnedabovecomb" format="2">
  <unicode hex="0312"/>
  <anchor x="300" y="547" name="_top"/>
  <anchor x="300" y="800" name="top"/>
  <outline>
    <contour>
      <point x="300" y="597" type="curve" smooth="yes"/>
      <point x="372" y="597"/>
      <point x="407" y="627"/>
      <point x="407" y="672" type="curve" smooth="yes"/>
      <point x="407" y="718"/>
      <point x="371" y="745"/>
      <point x="300" y="745" type="curve"/>
      <point x="330" y="672" type="line"/>
      <point x="395" y="837" type="line"/>
      <point x="277" y="837" type="line"/>
      <point x="223" y="752" type="line" smooth="yes"/>
      <point x="199" y="714"/>
      <point x="193" y="691"/>
      <point x="193" y="672" type="curve" smooth="yes"/>
      <point x="193" y="627"/>
      <point x="228" y="597"/>
    </contour>
  </outline>
</glyph>
<glyph name="cedillacomb" format="2">
  <unicode hex="0327"/>
  <anchor x="300" y="0" name="_bottom"/>
  <outline>
    <contour>
      <point x="259" y="-240" type="curve" smooth="yes"/>
      <point x="361" y="-240"/>
      <point x="429" y="-199"/>
      <point x="429" y="-132" type="curve" smooth="yes"/>
      <point x="429" y="-97"/>
      <point x="407" y="-60"/>
      <point x="344" y="-52" type="curve"/>
      <point x="358" y="10" type="line"/>
      <point x="242" y="10" type="line"/>
      <point x="215" y="-104" type="line"/>
      <point x="256" y="-104" type="line" smooth="yes"/>
      <point x="285" y="-104"/>
      <point x="297" y="-112"/>
      <point x="297" y="-124" type="curve" smooth="yes"/>
      <point x="297" y="-138"/>
      <point x="283" y="-148"/>
      <point x="249" y="-148" type="curve" smooth="yes"/>
      <point x="225" y="-148"/>
      <point x="204" y="-142"/>
      <point x="189" y="-136" type="curve"/>
      <point x="161" y="-219" type="line"/>
      <point x="183" y="-231"/>
      <point x="225" y="-240"/>
    </contour>
  </outline>
</glyph>
<glyph name="Delta" format="2">
  <advance width="806"/>
  <unicode hex="0394"/>
  <outline>
    <contour>
      <point x="519" y="700" type="line"/>
      <point x="287" y="700" type="line"/>
      <point x="-19" y="0" type="line"/>
      <point x="825" y="0" type="line"/>
    </contour>
    <contour>
      <point x="235" y="76" type="line"/>
      <point x="447" y="598" type="line"/>
      <point x="355" y="598" type="line"/>
      <point x="567" y="76" type="line"/>
      <point x="617" y="183" type="line"/>
      <point x="185" y="183" type="line"/>
    </contour>
  </outline>
</glyph>
<glyph name="mu" format="2">
  <advance width="700"/>
  <unicode hex="03BC"/>
  <outline>
    <contour>
      <point x="50" y="-194" type="line"/>
      <point x="276" y="-194" type="line"/>
      <point x="276" y="105" type="line"/>
      <point x="227" y="43" type="line"/>
      <point x="255" y="10"/>
      <point x="293" y="-10"/>
      <point x="340" y="-10" type="curve" smooth="yes"/>
      <point x="404" y="-10"/>
      <point x="469" y="28"/>
      <point x="486" y="138" type="curve"/>
      <point x="455" y="152" type="line"/>
      <point x="455" y="0" type="line"/>
      <point x="650" y="0" type="line"/>
      <point x="650" y="547" type="line"/>
      <point x="424" y="547" type="line"/>
      <point x="424" y="290" type="line" smooth="yes"/>
      <point x="424" y="209"/>
      <point x="386" y="180"/>
      <point x="347" y="180" type="curve" smooth="yes"/>
      <point x="303" y="180"/>
      <point x="276" y="206"/>
      <point x="276" y="284" type="curve" smooth="yes"/>
      <point x="276" y="547" type="line"/>
      <point x="50" y="547" type="line"/>
    </contour>
  </outline>
</glyph>
<glyph name="pi" format="2">
  <advance width="733"/>
  <unicode hex="03C0"/>
  <outline>
    <contour>
      <point x="16" y="236" type="curve"/>
      <point x="170" y="288" type="line"/>
      <point x="160" y="309"/>
      <point x="152" y="335"/>
      <point x="152" y="350" type="curve" smooth="yes"/>
      <point x="152" y="374"/>
      <point x="169" y="391"/>
      <point x="194" y="391" type="curve"/>
      <point x="720" y="391" type="line"/>
      <point x="720" y="547" type="line"/>
      <point x="164" y="547" type="line" smooth="yes"/>
      <point x="55" y="547"/>
      <point x="-22" y="480"/>
      <point x="-22" y="388" type="curve" smooth="yes"/>
      <point x="-22" y="342"/>
      <point x="-6" y="282"/>
    </contour>
    <contour>
      <point x="167" y="0" type="line"/>
      <point x="352" y="0" type="line"/>
      <point x="394" y="407" type="line"/>
      <point x="209" y="407" type="line"/>
    </contour>
    <contour>
      <point x="429" y="0" type="line"/>
      <point x="614" y="0" type="line"/>
      <point x="614" y="407" type="line"/>
      <point x="429" y="407" type="line"/>
    </contour>
  </outline>
</glyph>
<glyph name="E-cy" format="2">
  <advance width="723"/>
  <unicode hex="0404"/>
  <anchor x="381" y="0" name="bottom"/>
  <outline>
    <contour>
      <point x="495" y="433" type="line"/>
      <point x="182" y="433" type="line"/>
      <point x="182" y="263" type="line"/>
      <point x="495" y="263" type="line"/>
    </contour>
    <contour>
      <point x="400" y="-16" type="curve" smooth="yes"/>
      <point x="537" y="-16"/>
      <point x="645" y="34"/>
      <point x="714" y="124" type="curve"/>
      <point x="565" y="257" type="line"/>
      <point x="524" y="205"/>
      <point x="475" y="175"/>
      <point x="412" y="175" type="curve" smooth="yes"/>
      <point x="319" y="175"/>
      <point x="263" y="243"/>
      <point x="263" y="350" type="curve" smooth="yes"/>
      <point x="263" y="457"/>
      <point x="319" y="525"/>
      <point x="412" y="525" type="curve" smooth="yes"/>
      <point x="475" y="525"/>
      <point x="524" y="495"/>
      <point x="565" y="443" type="curve"/>
      <point x="714" y="576" type="line"/>
      <point x="645" y="666"/>
      <point x="537" y="716"/>
      <point x="400" y="716" type="curve" smooth="yes"/>
      <point x="180" y="716"/>
      <point x="25" y="565"/>
      <point x="25" y="350" type="curve" smooth="yes"/>
      <point x="25" y="135"/>
      <point x="180" y="-16"/>
    </contour>
  </outline>
</glyph>
<glyph name="Nje-cy" format="2">
  <advance width="1160"/>
  <unicode hex="040A"/>
  <outline>
    <contour>
      <point x="62" y="0" type="line"/>
      <point x="294" y="0" type="line"/>
      <point x="294" y="272" type="line"/>
      <point x="507" y="272" type="line"/>
      <point x="507" y="0" type="line"/>
      <point x="739" y="0" type="line"/>
      <point x="739" y="700" type="line"/>
      <point x="507" y="700" type="line"/>
      <point x="507" y="455" type="line"/>
      <point x="294" y="455" type="line"/>
      <point x="294" y="700" type="line"/>
      <point x="62" y="700" type="line"/>
    </contour>
    <contour>
      <point x="739" y="114" type="line"/>
      <point x="739" y="349" type="line"/>
      <point x="689" y="298" type="line"/>
      <point x="832" y="298" type="line" smooth="yes"/>
      <point x="878" y="298"/>
      <point x="905" y="276"/>
      <point x="905" y="232" type="curve" smooth="yes"/>
      <point x="905" y="188"/>
      <point x="877" y="165"/>
      <point x="832" y="165" type="curve" smooth="yes"/>
      <point x="689" y="165" type="line"/>
    </contour>
    <contour>
      <point x="507" y="0" type="line"/>
      <point x="862" y="0" type="line" smooth="yes"/>
      <point x="1036" y="0"/>
      <point x="1142" y="87"/>
      <point x="1142" y="239" type="curve" smooth="yes"/>
      <point x="1142" y="382"/>
      <point x="1047" y="463"/>
      <point x="882" y="463" type="curve" smooth="yes"/>
      <point x="689" y="463" type="line"/>
      <point x="739" y="403" type="line"/>
      <point x="739" y="700" type="line"/>
      <point x="507" y="700" type="line"/>
    </contour>
  </outline>
</glyph>
<glyph name="Pe-cy" format="2">
  <advance width="801"/>
  <unicode hex="041F"/>
  <anchor x="507" y="0" name="bottomleft"/>
  <outline>
    <contour>
      <point x="62" y="0" type="line"/>
      <point x="294" y="0" type="line"/>
      <point x="294" y="567" type="line"/>
      <point x="243" y="517" type="line"/>
      <point x="558" y="517" type="line"/>
      <point x="507" y="567" type="line"/>
      <point x="507" y="0" type="line"/>
      <point x="739" y="0" type="line"/>
      <point x="739" y="700" type="line"/>
      <point x="62" y="700" type="line"/>
    </contour>
  </outline>
</glyph>
<glyph name="Tse-cy" format="2">
  <advance width="857"/>
  <unicode hex="0426"/>
  <anchor x="500" y="0" name="_bottomleft"/>
  <outline>
    <contour>
      <point x="62" y="0" type="line"/>
      <point x="748" y="0" type="line"/>
      <point x="748" y="700" type="line"/>
      <point x="516" y="700" type="line"/>
      <point x="516" y="183" type="line"/>
      <point x="294" y="183" type="line"/>
      <point x="294" y="700" type="line"/>
      <point x="62" y="700" type="line"/>
    </contour>
    <contour>
      <point x="624" y="-137" type="line"/>
      <point x="840" y="-137" type="line"/>
      <point x="840" y="183" type="line"/>
      <point x="516" y="183" type="line"/>
      <point x="516" y="0" type="line"/>
      <point x="673" y="0" type="line"/>
      <point x="624" y="51" type="line"/>
    </contour>
  </outline>
</glyph>
<glyph name="Softsign-cy" format="2">
  <advance width="731"/>
  <unicode hex="042C"/>
  <guideline x="574" y="440" angle="0"/>
  <anchor x="62" y="0" name="#entry"/>
  <anchor x="190" y="580" name="center"/>
  <outline>
    <contour>
      <point x="439" y="485" type="curve" smooth="yes"/>
      <point x="294" y="485" type="line"/>
      <point x="294" y="700" type="line"/>
      <point x="62" y="700" type="line"/>
      <point x="62" y="0" type="line"/>
      <point x="409" y="0" type="line" smooth="yes"/>
      <point x="594" y="0"/>
      <point x="712" y="87"/>
      <point x="712" y="254" type="curve" smooth="yes"/>
      <point x="712" y="409"/>
      <point x="610" y="485"/>
    </contour>
    <contour>
      <point x="393" y="165" type="curve" smooth="yes"/>
      <point x="294" y="165" type="line"/>
      <point x="294" y="320" type="line"/>
      <point x="393" y="320" type="line" smooth="yes"/>
      <point x="440" y="320"/>
      <point x="475" y="303"/>
      <point x="475" y="250" type="curve" smooth="yes"/>
      <point x="475" y="196"/>
      <point x="440" y="165"/>
    </contour>
  </outline>
</glyph>
<glyph name="Iu-cy" format="2">
  <advance width="1133"/>
  <unicode hex="042E"/>
  <outline>
    <contour>
      <point x="62" y="0" type="line"/>
      <point x="294" y="0" type="line"/>
      <point x="294" y="258" type="line"/>
      <point x="475" y="258" type="line"/>
      <point x="475" y="452" type="line"/>
      <point x="294" y="452" type="line"/>
      <point x="294" y="700" type="line"/>
      <point x="62" y="700" type="line"/>
    </contour>
    <contour>
      <point x="723" y="-16" type="curve" smooth="yes"/>
      <point x="946" y="-16"/>
      <point x="1109" y="138"/>
      <point x="1109" y="350" type="curve" smooth="yes"/>
      <point x="1109" y="562"/>
      <point x="946" y="716"/>
      <point x="723" y="716" type="curve" smooth="yes"/>
      <point x="499" y="716"/>
      <point x="336" y="562"/>
      <point x="336" y="350" type="curve" smooth="yes"/>
      <point x="336" y="138"/>
      <point x="499" y="-16"/>
    </contour>
    <contour>
      <point x="723" y="175" type="curve" smooth="yes"/>
      <point x="640" y="175"/>
      <point x="574" y="241"/>
      <point x="574" y="350" type="curve" smooth="yes"/>
      <point x="574" y="459"/>
      <point x="640" y="525"/>
      <point x="723" y="525" type="curve" smooth="yes"/>
      <point x="805" y="525"/>
      <point x="871" y="459"/>
      <point x="871" y="350" type="curve" smooth="yes"/>
      <point x="871" y="241"/>
      <point x="805" y="175"/>
    </contour>
  </outline>
</glyph>
<glyph name="de-cy" format="2">
  <advance width="746"/>
  <unicode hex="0434"/>
  <outline>
    <contour>
      <point x="435" y="97" type="line"/>
      <point x="660" y="97" type="line"/>
      <point x="660" y="547" type="line"/>
      <point x="125" y="547" type="line"/>
      <point x="118" y="354" type="line" smooth="yes"/>
      <point x="114" y="255"/>
      <point x="99" y="177"/>
      <point x="29" y="177" type="curve"/>
      <point x="250" y="149" type="line"/>
      <point x="313" y="178"/>
      <point x="318" y="243"/>
      <point x="321" y="337" type="curve" smooth="yes"/>
      <point x="322" y="371" type="line"/>
      <point x="435" y="371" type="line"/>
    </contour>
    <contour>
      <point x="13" y="-108" type="line"/>
      <point x="222" y="-108" type="line"/>
      <point x="222" y="0" type="line"/>
      <point x="524" y="0" type="line"/>
      <point x="524" y="-108" type="line"/>
      <point x="733" y="-108" type="line"/>
      <point x="733" y="177" type="line"/>
      <point x="13" y="177" type="line"/>
    </contour>
  </outline>
</glyph>
<glyph name="sha-cy" format="2">
  <advance width="1005"/>
  <unicode hex="0448"/>
  <anchor x="724" y="0" name="bottomleft"/>
  <outline>
    <contour>
      <point x="440" y="177" type="line"/>
      <point x="229" y="177" type="line"/>
      <point x="278" y="128" type="line"/>
      <point x="278" y="547" type="line"/>
      <point x="53" y="547" type="line"/>
      <point x="53" y="0" type="line"/>
      <point x="952" y="0" type="line"/>
      <point x="952" y="547" type="line"/>
      <point x="728" y="547" type="line"/>
      <point x="728" y="128" type="line"/>
      <point x="777" y="177" type="line"/>
      <point x="566" y="177" type="line"/>
      <point x="616" y="128" type="line"/>
      <point x="616" y="547" type="line"/>
      <point x="391" y="547" type="line"/>
      <point x="391" y="128" type="line"/>
    </contour>
  </outline>
</glyph>
<glyph name="nje-cy" format="2">
  <advance width="995"/>
  <unicode hex="045A"/>
  <outline>
    <contour>
      <point x="756" y="368" type="curve" smooth="yes"/>
      <point x="648" y="368" type="line"/>
      <point x="648" y="547" type="line"/>
      <point x="423" y="547" type="line"/>
      <point x="423" y="368" type="line"/>
      <point x="278" y="368" type="line"/>
      <point x="278" y="547" type="line"/>
      <point x="53" y="547" type="line"/>
      <point x="53" y="0" type="line"/>
      <point x="278" y="0" type="line"/>
      <point x="278" y="191" type="line"/>
      <point x="423" y="191" type="line"/>
      <point x="423" y="0" type="line"/>
      <point x="728" y="0" type="line" smooth="yes"/>
      <point x="887" y="0"/>
      <point x="984" y="73"/>
      <point x="984" y="192" type="curve" smooth="yes"/>
      <point x="984" y="306"/>
      <point x="903" y="368"/>
    </contour>
    <contour>
      <point x="712" y="148" type="curve" smooth="yes"/>
      <point x="648" y="148" type="line"/>
      <point x="648" y="228" type="line"/>
      <point x="712" y="228" type="line" smooth="yes"/>
      <point x="739" y="228"/>
      <point x="754" y="215"/>
      <point x="754" y="190" type="curve" smooth="yes"/>
      <point x="754" y="165"/>
      <point x="738" y="148"/>
    </contour>
  </outline>
</glyph>
<glyph name="Ertick-cy" format="2">
  <advance width="738"/>
  <unicode hex="048E"/>
  <outline>
    <contour>
      <point x="62" y="0" type="line"/>
      <point x="298" y="0" type="line"/>
      <point x="298" y="203" type="line"/>
      <point x="243" y="152" type="line"/>
      <point x="399" y="152" type="line" smooth="yes"/>
      <point x="594" y="152"/>
      <point x="718" y="254"/>
      <point x="718" y="426" type="curve" smooth="yes"/>
      <point x="718" y="598"/>
      <point x="594" y="700"/>
      <point x="399" y="700" type="curve" smooth="yes"/>
      <point x="62" y="700" type="line"/>
    </contour>
    <contour>
      <point x="298" y="277" type="line"/>
      <point x="298" y="575" type="line"/>
      <point x="243" y="518" type="line"/>
      <point x="384" y="518" type="line" smooth="yes"/>
      <point x="449" y="518"/>
      <point x="480" y="487"/>
      <point x="480" y="426" type="curve" smooth="yes"/>
      <point x="480" y="365"/>
      <point x="449" y="334"/>
      <point x="384" y="334" type="curve" smooth="yes"/>
      <point x="243" y="334" type="line"/>
    </contour>
    <contour>
      <point x="653" y="134" type="line"/>
      <point x="398" y="454" type="line"/>
      <point x="330" y="398" type="line"/>
      <point x="584" y="78" type="line"/>
    </contour>
  </outline>
</glyph>
<glyph name="gheupturn-cy" format="2">
  <advance width="543"/>
  <unicode hex="0491"/>
  <outline>
    <contour>
      <point x="53" y="0" type="line"/>
      <point x="278" y="0" type="line"/>
      <point x="278" y="371" type="line"/>
      <point x="531" y="371" type="line"/>
      <point x="531" y="659" type="line"/>
      <point x="321" y="659" type="line"/>
      <point x="321" y="547" type="line"/>
      <point x="53" y="547" type="line"/>
    </contour>
  </outline>
</glyph>
<glyph name="ghestroke-cy" format="2">
  <advance width="589"/>
  <unicode hex="0493"/>
  <outline>
    <contour>
      <point x="9" y="169" type="line"/>
      <point x="486" y="169" type="line"/>
      <point x="486" y="289" type="line"/>
      <point x="9" y="289" type="line"/>
    </contour>
    <component base="ge-cy" xOffset="46"/>
  </outline>
</glyph>
<glyph name="kaverticalstroke-cy" format="2">
  <advance width="709"/>
  <unicode hex="049D"/>
  <outline>
    <contour>
      <point x="448" y="0" type="line"/>
      <point x="709" y="0" type="line"/>
      <point x="519" y="356" type="line"/>
      <point x="341" y="251" type="line"/>
    </contour>
    <contour>
      <point x="45" y="0" type="line"/>
      <point x="271" y="0" type="line"/>
      <point x="271" y="547" type="line"/>
      <point x="45" y="547" type="line"/>
    </contour>
    <contour>
      <point x="213" y="182" type="line"/>
      <point x="417" y="182" type="line"/>
      <point x="417" y="355" type="line"/>
      <point x="213" y="355" type="line"/>
    </contour>
    <contour>
      <point x="541" y="250" type="line"/>
      <point x="697" y="547" type="line"/>
      <point x="465" y="547" type="line"/>
      <point x="335" y="270" type="line"/>
    </contour>
    <contour>
      <point x="292" y="126" type="line"/>
      <point x="368" y="126" type="line"/>
      <point x="368" y="425" type="line"/>
      <point x="295" y="425" type="line"/>
    </contour>
  </outline>
</glyph>
<glyph name="Kastroke-cy" format="2">
  <advance width="789"/>
  <unicode hex="049E"/>
  <outline>
    <contour>
      <point x="11" y="542" type="line"/>
      <point x="418" y="542" type="line"/>
      <point x="418" y="642" type="line"/>
      <point x="11" y="642" type="line"/>
    </contour>
    <component base="Ka-cy" xOffset="24"/>
  </outline>
</glyph>
<glyph name="Pemiddlehook-cy" format="2">
  <advance width="1157"/>
  <unicode hex="04A6"/>
  <anchor x="508" y="0" name="bottomleft"/>
  <outline>
    <contour>
      <point x="763" y="-155" type="line"/>
      <point x="975" y="-193"/>
      <point x="1138" y="-68"/>
      <point x="1138" y="133" type="curve" smooth="yes"/>
      <point x="1138" y="341"/>
      <point x="962" y="443"/>
      <point x="715" y="378" type="curve"/>
      <point x="722" y="201" type="line"/>
      <point x="842" y="243"/>
      <point x="906" y="213"/>
      <point x="906" y="117" type="curve" smooth="yes"/>
      <point x="906" y="44"/>
      <point x="864" y="5"/>
      <point x="799" y="19" type="curve"/>
    </contour>
    <component base="Pe-cy"/>
  </outline>
</glyph>
<glyph name="pemiddlehook-cy" format="2">
  <advance width="1019"/>
  <unicode hex="04A7"/>
  <outline>
    <contour>
      <point x="53" y="0" type="line"/>
      <point x="278" y="0" type="line"/>
      <point x="278" y="418" type="line"/>
      <point x="229" y="371" type="line"/>
      <point x="462" y="371" type="line"/>
      <point x="413" y="418" type="line"/>
      <point x="413" y="0" type="line"/>
      <point x="638" y="0" type="line"/>
      <point x="638" y="547" type="line"/>
      <point x="53" y="547" type="line"/>
    </contour>
    <contour>
      <point x="615" y="-193" type="line"/>
      <point x="848" y="-242"/>
      <point x="1010" y="-114"/>
      <point x="1010" y="65" type="curve" smooth="yes"/>
      <point x="1010" y="246"/>
      <point x="843" y="356"/>
      <point x="587" y="288" type="curve"/>
      <point x="594" y="111" type="line"/>
      <point x="666" y="142"/>
      <point x="778" y="154"/>
      <point x="778" y="55" type="curve" smooth="yes"/>
      <point x="778" y="6"/>
      <point x="749" y="-35"/>
      <point x="661" y="-17" type="curve"/>
    </contour>
  </outline>
</glyph>
<glyph name="Ustrait-cy" format="2">
  <advance width="766"/>
  <unicode hex="04AE"/>
  <anchor x="383" y="0" name="bottom"/>
  <anchor x="377" y="266" name="center"/>
  <anchor x="383" y="700" name="top"/>
  <outline>
    <contour>
      <point x="265" y="0" type="line"/>
      <point x="501" y="0" type="line"/>
      <point x="501" y="307" type="line"/>
      <point x="449" y="166" type="line"/>
      <point x="765" y="700" type="line"/>
      <point x="537" y="700" type="line"/>
      <point x="320" y="335" type="line"/>
      <point x="465" y="335" type="line"/>
      <point x="250" y="700" type="line"/>
      <point x="1" y="700" type="line"/>
      <point x="319" y="166" type="line"/>
      <point x="265" y="307" type="line"/>
    </contour>
  </outline>
</glyph>
<glyph name="Ustraitstroke-cy" format="2">
  <advance width="766"/>
  <unicode hex="04B0"/>
  <outline>
    <contour>
      <point x="145.9488" y="211" type="line"/>
      <point x="608.5312" y="211" type="line"/>
      <point x="608.5312" y="321" type="line"/>
      <point x="145.9488" y="321" type="line"/>
    </contour>
    <component base="Ustrait-cy"/>
  </outline>
</glyph>
<glyph name="ustraitstroke-cy" format="2">
  <advance width="668"/>
  <unicode hex="04B1"/>
  <outline>
    <contour>
      <point x="68.167" y="-50" type="line"/>
      <point x="596.533" y="-50" type="line"/>
      <point x="596.533" y="60" type="line"/>
      <point x="68.167" y="60" type="line"/>
    </contour>
    <component base="ustrait-cy"/>
  </outline>
</glyph>
<glyph name="cheverticalstroke-cy" format="2">
  <advance width="662"/>
  <unicode hex="04B9"/>
  <outline>
    <contour>
      <point x="270" y="91" type="line"/>
      <point x="347" y="91" type="line"/>
      <point x="347" y="402" type="line"/>
      <point x="274" y="402" type="line"/>
    </contour>
    <component base="che-cy"/>
  </outline>
</glyph>
<glyph name="Cheabkhasian-cy" format="2">
  <advance width="1049"/>
  <unicode hex="04BC"/>
  <anchor x="660" y="0" name="bottom"/>
  <anchor x="650" y="703" name="top"/>
  <outline>
    <contour>
      <point x="657" y="-16" type="curve" smooth="yes"/>
      <point x="775" y="-16"/>
      <point x="897" y="27"/>
      <point x="981" y="113" type="curve"/>
      <point x="811" y="249" type="line"/>
      <point x="768" y="198"/>
      <point x="712" y="174"/>
      <point x="660" y="174" type="curve" smooth="yes"/>
      <point x="576" y="174"/>
      <point x="501" y="237"/>
      <point x="501" y="352" type="curve" smooth="yes"/>
      <point x="501" y="468"/>
      <point x="576" y="528"/>
      <point x="650" y="528" type="curve" smooth="yes"/>
      <point x="723" y="528"/>
      <point x="795" y="469"/>
      <point x="790" y="350" type="curve"/>
      <point x="841" y="419" type="line"/>
      <point x="275" y="419" type="line" smooth="yes"/>
      <point x="191" y="419"/>
      <point x="182" y="492"/>
      <point x="221" y="562" type="curve"/>
      <point x="38" y="592" type="line"/>
      <point x="-36" y="402"/>
      <point x="58" y="269"/>
      <point x="244" y="269" type="curve" smooth="yes"/>
      <point x="1018" y="269" type="line"/>
      <point x="1025" y="298"/>
      <point x="1028" y="326"/>
      <point x="1028" y="356" type="curve" smooth="yes"/>
      <point x="1028" y="596"/>
      <point x="840" y="716"/>
      <point x="651" y="716" type="curve" smooth="yes"/>
      <point x="459" y="716"/>
      <point x="263" y="593"/>
      <point x="263" y="350" type="curve" smooth="yes"/>
      <point x="263" y="108"/>
      <point x="457" y="-16"/>
    </contour>
  </outline>
</glyph>
<glyph name="cheabkhasian-cy" format="2">
  <advance width="866"/>
  <unicode hex="04BD"/>
  <guideline x="766" y="218" angle="0"/>
  <guideline x="766" y="325" angle="0"/>
  <anchor x="543" y="0" name="bottom"/>
  <anchor x="545" y="547" name="top"/>
  <outline>
    <contour>
      <point x="339" y="221" type="line"/>
      <point x="339" y="330" type="line"/>
      <point x="235" y="330" type="line" smooth="yes"/>
      <point x="181" y="330"/>
      <point x="168" y="383"/>
      <point x="198" y="444" type="curve"/>
      <point x="31" y="472" type="line"/>
      <point x="-25" y="309"/>
      <point x="40" y="221"/>
      <point x="210" y="221" type="curve" smooth="yes"/>
    </contour>
    <contour>
      <point x="566" y="-10" type="curve" smooth="yes"/>
      <point x="677" y="-10"/>
      <point x="756" y="20"/>
      <point x="811" y="78" type="curve"/>
      <point x="690" y="197" type="line"/>
      <point x="653" y="170"/>
      <point x="624" y="157"/>
      <point x="573" y="157" type="curve" smooth="yes"/>
      <point x="497" y="157"/>
      <point x="453" y="196"/>
      <point x="453" y="267" type="curve" smooth="yes"/>
      <point x="453" y="301" type="line" smooth="yes"/>
      <point x="453" y="364"/>
      <point x="489" y="403"/>
      <point x="546" y="403" type="curve" smooth="yes"/>
      <point x="603" y="403"/>
      <point x="639" y="364"/>
      <point x="639" y="301" type="curve"/>
      <point x="727" y="330" type="line"/>
      <point x="418" y="330" type="line"/>
      <point x="418" y="221" type="line"/>
      <point x="849" y="221" type="line"/>
      <point x="851" y="237"/>
      <point x="853" y="258"/>
      <point x="853" y="274" type="curve" smooth="yes"/>
      <point x="853" y="459"/>
      <point x="710" y="557"/>
      <point x="544" y="557" type="curve" smooth="yes"/>
      <point x="363" y="557"/>
      <point x="227" y="440"/>
      <point x="227" y="274" type="curve" smooth="yes"/>
      <point x="227" y="111"/>
      <point x="360" y="-10"/>
    </contour>
  </outline>
</glyph>
<glyph name="chekhakassian-cy" format="2">
  <advance width="657"/>
  <unicode hex="04CC"/>
  <outline>
    <contour>
      <point x="253" y="197" type="curve" smooth="yes"/>
      <point x="319" y="197"/>
      <point x="364" y="213"/>
      <point x="394" y="234" type="curve"/>
      <point x="393" y="386" type="line"/>
      <point x="373" y="371"/>
      <point x="344" y="362"/>
      <point x="307" y="362" type="curve" smooth="yes"/>
      <point x="264" y="362"/>
      <point x="243" y="379"/>
      <point x="243" y="435" type="curve" smooth="yes"/>
      <point x="243" y="547" type="line"/>
      <point x="18" y="547" type="line"/>
      <point x="18" y="420" type="line" smooth="yes"/>
      <point x="18" y="263"/>
      <point x="96" y="197"/>
    </contour>
    <contour>
      <point x="287" y="-101" type="line"/>
      <point x="497" y="-101" type="line"/>
      <point x="497" y="48" type="line"/>
      <point x="448" y="0" type="line"/>
      <point x="585" y="0" type="line"/>
      <point x="585" y="167" type="line"/>
      <point x="287" y="167" type="line"/>
    </contour>
    <contour>
      <point x="379" y="0" type="line"/>
      <point x="604" y="0" type="line"/>
      <point x="604" y="547" type="line"/>
      <point x="379" y="547" type="line"/>
    </contour>
  </outline>
</glyph>
<glyph name="Dzeabkhasian-cy" format="2">
  <advance width="654"/>
  <unicode hex="04E0"/>
  <outline>
    <contour>
      <point x="300" y="-16" type="curve" smooth="yes"/>
      <point x="533" y="-16"/>
      <point x="632" y="103"/>
      <point x="632" y="225" type="curve" smooth="yes"/>
      <point x="632" y="347"/>
      <point x="534" y="435"/>
      <point x="350" y="435" type="curve" smooth="yes"/>
      <point x="288" y="435" type="line"/>
      <point x="401" y="371" type="line"/>
      <point x="592" y="555" type="line"/>
      <point x="592" y="700" type="line"/>
      <point x="49" y="700" type="line"/>
      <point x="49" y="522" type="line"/>
      <point x="419" y="522" type="line"/>
      <point x="398" y="601" type="line"/>
      <point x="207" y="417" type="line"/>
      <point x="207" y="272" type="line"/>
      <point x="301" y="272" type="line" smooth="yes"/>
      <point x="366" y="272"/>
      <point x="394" y="254"/>
      <point x="394" y="224" type="curve" smooth="yes"/>
      <point x="394" y="188"/>
      <point x="352" y="170"/>
      <point x="292" y="170" type="curve" smooth="yes"/>
      <point x="230" y="170"/>
      <point x="155" y="186"/>
      <point x="92" y="221" type="curve"/>
      <point x="16" y="47" type="line"/>
      <point x="92" y="5"/>
      <point x="202" y="-16"/>
    </contour>
  </outline>
</glyph>
<glyph name="Hahook-cy" format="2">
  <advance width="773"/>
  <unicode hex="04FC"/>
  <outline>
    <contour>
      <point x="4" y="0" type="line"/>
      <point x="271" y="0" type="line"/>
      <point x="405" y="212" type="line"/>
      <point x="528" y="369" type="line"/>
      <point x="765" y="700" type="line"/>
      <point x="511" y="700" type="line"/>
      <point x="395" y="524" type="line"/>
      <point x="276" y="700" type="line"/>
      <point x="11" y="700" type="line"/>
      <point x="255" y="353" type="line"/>
    </contour>
    <contour>
      <point x="514" y="-210" type="curve" smooth="yes"/>
      <point x="643" y="-210"/>
      <point x="756" y="-138"/>
      <point x="756" y="-1" type="curve" smooth="yes"/>
      <point x="756" y="102"/>
      <point x="660" y="222"/>
      <point x="491" y="412" type="curve"/>
      <point x="351" y="228" type="line"/>
      <point x="433" y="138"/>
      <point x="498" y="55"/>
      <point x="498" y="11" type="curve" smooth="yes"/>
      <point x="498" y="-15"/>
      <point x="484" y="-28"/>
      <point x="461" y="-28" type="curve" smooth="yes"/>
      <point x="450" y="-28"/>
      <point x="436" y="-25"/>
      <point x="421" y="-19" type="curve"/>
      <point x="368" y="-179" type="line"/>
      <point x="415" y="-200"/>
      <point x="466" y="-210"/>
    </contour>
  </outline>
</glyph>
<glyph name="hahook-cy" format="2">
  <advance width="660"/>
  <unicode hex="04FD"/>
  <outline>
    <contour>
      <point x="-2" y="0" type="line"/>
      <point x="243" y="0" type="line"/>
      <point x="656" y="547" type="line"/>
      <point x="419" y="547" type="line"/>
      <point x="337" y="431" type="line"/>
      <point x="259" y="547" type="line"/>
      <point x="3" y="547" type="line"/>
      <point x="205" y="272" type="line"/>
    </contour>
    <contour>
      <point x="426" y="-206" type="curve" smooth="yes"/>
      <point x="551" y="-206"/>
      <point x="652" y="-139"/>
      <point x="652" y="-15" type="curve" smooth="yes"/>
      <point x="652" y="104"/>
      <point x="559" y="200"/>
      <point x="431" y="344" type="curve"/>
      <point x="258" y="229" type="line"/>
      <point x="356" y="127"/>
      <point x="426" y="51"/>
      <point x="426" y="3" type="curve" smooth="yes"/>
      <point x="426" y="-20"/>
      <point x="410" y="-33"/>
      <point x="385" y="-33" type="curve" smooth="yes"/>
      <point x="371" y="-33"/>
      <point x="354" y="-29"/>
      <point x="335" y="-21" type="curve"/>
      <point x="281" y="-177" type="line"/>
      <point x="330" y="-196"/>
      <point x="380" y="-206"/>
    </contour>
  </outline>
</glyph>
<glyph name="Elhook-cy" format="2">
  <advance width="807"/>
  <unicode hex="0512"/>
  <outline>
    <contour>
      <point x="361" y="-177" type="line"/>
      <point x="529" y="-249"/>
      <point x="745" y="-194"/>
      <point x="745" y="20" type="curve" smooth="yes"/>
      <point x="745" y="700" type="line"/>
      <point x="154" y="700" type="line"/>
      <point x="145" y="427" type="line" smooth="yes"/>
      <point x="140" y="291"/>
      <point x="130" y="186"/>
      <point x="52" y="186" type="curve" smooth="yes"/>
      <point x="44" y="186"/>
      <point x="35" y="187"/>
      <point x="26" y="189" type="curve"/>
      <point x="14" y="0" type="line"/>
      <point x="51" y="-9"/>
      <point x="85" y="-13"/>
      <point x="114" y="-13" type="curve" smooth="yes"/>
      <point x="307" y="-13"/>
      <point x="343" y="166"/>
      <point x="351" y="436" type="curve" smooth="yes"/>
      <point x="353" y="517" type="line"/>
      <point x="513" y="517" type="line"/>
      <point x="513" y="23" type="line" smooth="yes"/>
      <point x="513" y="-30"/>
      <point x="468" y="-45"/>
      <point x="415" y="-20" type="curve"/>
    </contour>
  </outline>
</glyph>
<glyph name="enlefthook-cy" format="2">
  <advance width="711"/>
  <unicode hex="0529"/>
  <outline>
    <contour>
      <point x="433" y="547" type="line"/>
      <point x="433" y="360" type="line"/>
      <point x="278" y="360" type="line"/>
      <point x="278" y="547" type="line"/>
      <point x="53" y="547" type="line"/>
      <point x="53" y="30" type="line" smooth="yes"/>
      <point x="53" y="-15"/>
      <point x="33" y="-34"/>
      <point x="6" y="-34" type="curve" smooth="yes"/>
      <point x="-12" y="-34"/>
      <point x="-30" y="-29"/>
      <point x="-45" y="-21" type="curve"/>
      <point x="-99" y="-177" type="line"/>
      <point x="-64" y="-195"/>
      <point x="-13" y="-204"/>
      <point x="40" y="-204" type="curve" smooth="yes"/>
      <point x="191" y="-204"/>
      <point x="278" y="-113"/>
      <point x="278" y="28" type="curve" smooth="yes"/>
      <point x="278" y="183" type="line"/>
      <point x="433" y="183" type="line"/>
      <point x="433" y="0" type="line"/>
      <point x="658" y="0" type="line"/>
      <point x="658" y="547" type="line"/>
    </contour>
  </outline>
</glyph>
<glyph name="ohorntilde" format="2">
  <advance width="672"/>
  <unicode hex="1EE1"/>
  <outline>
    <contour>
      <point x="383.8" y="597" type="curve" smooth="yes"/>
      <point x="451.8" y="597"/>
      <point x="492.6" y="665"/>
      <point x="494.2" y="767" type="curve"/>
      <point x="408.6" y="767" type="line"/>
      <point x="407" y="739"/>
      <point x="393.4" y="721"/>
      <point x="372.6" y="721" type="curve" smooth="yes"/>
      <point x="343.8" y="721"/>
      <point x="313.4" y="780"/>
      <point x="254.2" y="780" type="curve" smooth="yes"/>
      <point x="186.2" y="780"/>
      <point x="145.4" y="712"/>
      <point x="143.8" y="607" type="curve"/>
      <point x="229.4" y="607" type="line"/>
      <point x="231" y="637"/>
      <point x="244.6" y="656"/>
      <point x="265.4" y="656" type="curve" smooth="yes"/>
      <point x="294.2" y="656"/>
      <point x="324.6" y="597"/>
    </contour>
    <component base="ohorn"/>
  </outline>
</glyph>
<glyph name="figuredash" format="2">
  <advance width="700"/>
  <unicode hex="2012"/>
  <outline>
    <contour>
      <point x="40" y="290" type="line"/>
      <point x="660" y="290" type="line"/>
      <point x="660" y="420" type="line"/>
      <point x="40" y="420" type="line"/>
    </contour>
  </outline>
</glyph>
<glyph name="emdash" format="2">
  <advance width="1000"/>
  <unicode hex="2014"/>
  <outline>
    <contour>
      <point x="0" y="224" type="line"/>
      <point x="1000" y="224" type="line"/>
      <point x="1000" y="354" type="line"/>
      <point x="0" y="354" type="line"/>
    </contour>
  </outline>
</glyph>
<glyph name="daggerdbl" format="2">
  <advance width="627"/>
  <unicode hex="2021"/>
  <outline>
    <contour>
      <point x="598" y="328" type="line"/>
      <point x="598" y="506" type="line"/>
      <point x="426" y="506" type="line"/>
      <point x="426" y="700" type="line"/>
      <point x="200" y="700" type="line"/>
      <point x="200" y="506" type="line"/>
      <point x="29" y="506" type="line"/>
      <point x="29" y="328" type="line"/>
      <point x="200" y="328" type="line"/>
      <point x="200" y="178" type="line"/>
      <point x="29" y="178" type="line"/>
      <point x="29" y="0" type="line"/>
      <point x="200" y="0" type="line"/>
      <point x="200" y="-194" type="line"/>
      <point x="426" y="-194" type="line"/>
      <point x="426" y="0" type="line"/>
      <point x="598" y="0" type="line"/>
      <point x="598" y="178" type="line"/>
      <point x="426" y="178" type="line"/>
      <point x="426" y="328" type="line"/>
    </contour>
  </outline>
</glyph>
<glyph name="perthousand" format="2">
  <advance width="1314"/>
  <unicode hex="2030"/>
  <outline>
    <contour>
      <point x="135" y="0" type="line"/>
      <point x="304" y="0" type="line"/>
      <point x="782" y="700" type="line"/>
      <point x="613" y="700" type="line"/>
    </contour>
    <contour>
      <point x="202" y="320" type="curve" smooth="yes"/>
      <point x="308" y="320"/>
      <point x="388" y="390"/>
      <point x="388" y="515" type="curve" smooth="yes"/>
      <point x="388" y="639"/>
      <point x="308" y="710"/>
      <point x="202" y="710" type="curve" smooth="yes"/>
      <point x="96" y="710"/>
      <point x="16" y="639"/>
      <point x="16" y="515" type="curve" smooth="yes"/>
      <point x="16" y="390"/>
      <point x="96" y="320"/>
    </contour>
    <contour>
      <point x="202" y="428" type="curve" smooth="yes"/>
      <point x="180" y="428"/>
      <point x="158" y="448"/>
      <point x="158" y="515" type="curve" smooth="yes"/>
      <point x="158" y="582"/>
      <point x="180" y="602"/>
      <point x="202" y="602" type="curve" smooth="yes"/>
      <point x="224" y="602"/>
      <point x="246" y="582"/>
      <point x="246" y="515" type="curve" smooth="yes"/>
      <point x="246" y="448"/>
      <point x="224" y="428"/>
    </contour>
    <contour>
      <point x="715" y="-10" type="curve" smooth="yes"/>
      <point x="821" y="-10"/>
      <point x="901" y="60"/>
      <point x="901" y="185" type="curve" smooth="yes"/>
      <point x="901" y="309"/>
      <point x="821" y="380"/>
      <point x="715" y="380" type="curve" smooth="yes"/>
      <point x="609" y="380"/>
      <point x="529" y="309"/>
      <point x="529" y="185" type="curve" smooth="yes"/>
      <point x="529" y="60"/>
      <point x="609" y="-10"/>
    </contour>
    <contour>
      <point x="715" y="98" type="curve" smooth="yes"/>
      <point x="693" y="98"/>
      <point x="671" y="118"/>
      <point x="671" y="185" type="curve" smooth="yes"/>
      <point x="671" y="252"/>
      <point x="693" y="272"/>
      <point x="715" y="272" type="curve" smooth="yes"/>
      <point x="737" y="272"/>
      <point x="759" y="252"/>
      <point x="759" y="185" type="curve" smooth="yes"/>
      <point x="759" y="118"/>
      <point x="737" y="98"/>
    </contour>
    <contour>
      <point x="1112" y="-10" type="curve" smooth="yes"/>
      <point x="1218" y="-10"/>
      <point x="1298" y="60"/>
      <point x="1298" y="185" type="curve" smooth="yes"/>
      <point x="1298" y="309"/>
      <point x="1218" y="380"/>
      <point x="1112" y="380" type="curve" smooth="yes"/>
      <point x="1006" y="380"/>
      <point x="926" y="309"/>
      <point x="926" y="185" type="curve" smooth="yes"/>
      <point x="926" y="60"/>
      <point x="1006" y="-10"/>
    </contour>
    <contour>
      <point x="1112" y="98" type="curve" smooth="yes"/>
      <point x="1090" y="98"/>
      <point x="1068" y="118"/>
      <point x="1068" y="185" type="curve" smooth="yes"/>
      <point x="1068" y="252"/>
      <point x="1090" y="272"/>
      <point x="1112" y="272" type="curve" smooth="yes"/>
      <point x="1134" y="272"/>
      <point x="1156" y="252"/>
      <point x="1156" y="185" type="curve" smooth="yes"/>
      <point x="1156" y="118"/>
      <point x="1134" y="98"/>
    </contour>
  </outline>
</glyph>
<glyph name="won" format="2">
  <advance width="1310"/>
  <unicode hex="20A9"/>
  <outline>
    <contour>
      <point x="276" y="0" type="line"/>
      <point x="529" y="0" type="line"/>
      <point x="693" y="484" type="line"/>
      <point x="625" y="484" type="line"/>
      <point x="781" y="0" type="line"/>
      <point x="1034" y="0" type="line"/>
      <point x="1268" y="700" type="line"/>
      <point x="1041" y="700" type="line"/>
      <point x="842" y="109" type="line"/>
      <point x="965" y="109" type="line"/>
      <point x="776" y="700" type="line"/>
      <point x="553" y="700" type="line"/>
      <point x="351" y="109" type="line"/>
      <point x="479" y="109" type="line"/>
      <point x="288" y="700" type="line"/>
      <point x="42" y="700" type="line"/>
    </contour>
    <contour>
      <point x="30" y="225" type="line"/>
      <point x="1280" y="225" type="line"/>
      <point x="1280" y="337" type="line"/>
      <point x="30" y="337" type="line"/>
    </contour>
    <contour>
      <point x="30" y="363" type="line"/>
      <point x="1280" y="363" type="line"/>
      <point x="1280" y="475" type="line"/>
      <point x="30" y="475" type="line"/>
    </contour>
  </outline>
</glyph>
<glyph name="rupeeIndian" format="2">
  <advance width="728"/>
  <unicode hex="20B9"/>
  <outline>
    <contour>
      <point x="57" y="216" type="line"/>
      <point x="294" y="216" type="line" smooth="yes"/>
      <point x="489" y="216"/>
      <point x="613" y="304"/>
      <point x="613" y="456" type="curve" smooth="yes"/>
      <point x="613" y="533"/>
      <point x="566" y="613"/>
      <point x="492" y="652" type="curve"/>
      <point x="461" y="589" type="line"/>
      <point x="678" y="589" type="line"/>
      <point x="678" y="701" type="line" smooth="yes"/>
      <point x="57" y="701" type="line"/>
      <point x="57" y="589" type="line"/>
      <point x="259" y="589" type="line" smooth="yes"/>
      <point x="344" y="589"/>
      <point x="375" y="544"/>
      <point x="375" y="491" type="curve" smooth="yes"/>
      <point x="375" y="438"/>
      <point x="344" y="394"/>
      <point x="259" y="394" type="curve" smooth="yes"/>
      <point x="57" y="394" type="line"/>
    </contour>
    <contour>
      <point x="376" y="0" type="line"/>
      <point x="628" y="0" type="line"/>
      <point x="444" y="285" type="line"/>
      <point x="194" y="285" type="line"/>
    </contour>
    <contour>
      <point x="57" y="451" type="line"/>
      <point x="678" y="451" type="line"/>
      <point x="678" y="563" type="line"/>
      <point x="57" y="563" type="line"/>
    </contour>
  </outline>
</glyph>
<glyph name="ruble" format="2">
  <advance width="806"/>
  <unicode hex="20BD"/>
  <outline>
    <contour>
      <point x="120" y="0" type="line"/>
      <point x="356" y="0" type="line"/>
      <point x="356" y="325" type="line"/>
      <point x="251" y="224" type="line"/>
      <point x="457" y="224" type="line" smooth="yes"/>
      <point x="652" y="224"/>
      <point x="776" y="300"/>
      <point x="776" y="462" type="curve" smooth="yes"/>
      <point x="776" y="624"/>
      <point x="652" y="700"/>
      <point x="457" y="700" type="curve" smooth="yes"/>
      <point x="120" y="700" type="line"/>
    </contour>
    <contour>
      <point x="356" y="299" type="line"/>
      <point x="356" y="625" type="line"/>
      <point x="251" y="518" type="line"/>
      <point x="454" y="518" type="line" smooth="yes"/>
      <point x="507" y="518"/>
      <point x="538" y="498"/>
      <point x="538" y="459" type="curve" smooth="yes"/>
      <point x="538" y="420"/>
      <point x="507" y="400"/>
      <point x="454" y="400" type="curve" smooth="yes"/>
      <point x="251" y="400" type="line"/>
    </contour>
    <contour>
      <point x="30" y="60" type="line"/>
      <point x="566" y="60" type="line"/>
      <point x="566" y="172" type="line"/>
      <point x="30" y="172" type="line"/>
    </contour>
  </outline>
</glyph>
<glyph name="numero" format="2">
  <advance width="1233"/>
  <unicode hex="2116"/>
  <outline>
    <contour>
      <point x="57" y="0" type="line"/>
      <point x="287" y="0" type="line"/>
      <point x="287" y="426" type="line"/>
      <point x="197" y="426" type="line"/>
      <point x="553" y="0" type="line"/>
      <point x="747" y="0" type="line"/>
      <point x="747" y="700" type="line"/>
      <point x="517" y="700" type="line"/>
      <point x="517" y="274" type="line"/>
      <point x="607" y="274" type="line"/>
      <point x="251" y="700" type="line"/>
      <point x="57" y="700" type="line"/>
    </contour>
    <contour>
      <point x="817" y="192" type="line"/>
      <point x="1183" y="192" type="line"/>
      <point x="1183" y="322" type="line"/>
      <point x="817" y="322" type="line"/>
    </contour>
    <contour>
      <point x="1000" y="372" type="curve" smooth="yes"/>
      <point x="1119" y="372"/>
      <point x="1203" y="442"/>
      <point x="1203" y="541" type="curve" smooth="yes"/>
      <point x="1203" y="640"/>
      <point x="1119" y="710"/>
      <point x="1000" y="710" type="curve" smooth="yes"/>
      <point x="882" y="710"/>
      <point x="797" y="640"/>
      <point x="797" y="541" type="curve" smooth="yes"/>
      <point x="797" y="442"/>
      <point x="882" y="372"/>
    </contour>
    <contour>
      <point x="1000" y="482" type="curve" smooth="yes"/>
      <point x="971" y="482"/>
      <point x="948" y="502"/>
      <point x="948" y="541" type="curve" smooth="yes"/>
      <point x="948" y="581"/>
      <point x="971" y="600"/>
      <point x="1000" y="600" type="curve" smooth="yes"/>
      <point x="1029" y="600"/>
      <point x="1052" y="581"/>
      <point x="1052" y="541" type="curve" smooth="yes"/>
      <point x="1052" y="502"/>
      <point x="1029" y="482"/>
    </contour>
  </outline>
</glyph>
<glyph name="leftArrow" format="2">
  <advance width="600"/>
  <unicode hex="2190"/>
  <outline>
    <contour>
      <point x="208" y="31" type="line"/>
      <point x="397" y="31" type="line"/>
      <point x="255" y="279" type="line"/>
      <point x="397" y="527" type="line"/>
      <point x="208" y="527" type="line"/>
      <point x="48" y="279" type="line"/>
    </contour>
    <contour>
      <point x="217" y="204" type="line"/>
      <point x="570" y="204" type="line"/>
      <point x="570" y="353" type="line"/>
      <point x="217" y="353" type="line"/>
    </contour>
  </outline>
</glyph>
<glyph name="leftRightArrow" format="2">
  <advance width="950"/>
  <unicode hex="2194"/>
  <outline>
    <contour>
      <point x="551" y="31" type="line"/>
      <point x="740" y="31" type="line"/>
      <point x="900" y="279" type="line"/>
      <point x="740" y="527" type="line"/>
      <point x="551" y="527" type="line"/>
      <point x="693" y="279" type="line"/>
    </contour>
    <contour>
      <point x="210" y="31" type="line"/>
      <point x="399" y="31" type="line"/>
      <point x="257" y="279" type="line"/>
      <point x="399" y="527" type="line"/>
      <point x="210" y="527" type="line"/>
      <point x="50" y="279" type="line"/>
    </contour>
    <contour>
      <point x="219" y="204" type="line"/>
      <point x="733" y="204" type="line"/>
      <point x="733" y="353" type="line"/>
      <point x="219" y="353" type="line"/>
    </contour>
  </outline>
</glyph>
<glyph name="partialdiff" format="2">
  <advance width="700"/>
  <unicode hex="2202"/>
  <outline>
    <contour>
      <point x="323" y="-16" type="curve" smooth="yes"/>
      <point x="530" y="-16"/>
      <point x="667" y="114"/>
      <point x="667" y="338" type="curve" smooth="yes"/>
      <point x="667" y="615"/>
      <point x="508" y="758"/>
      <point x="244" y="758" type="curve" smooth="yes"/>
      <point x="195" y="758"/>
      <point x="136" y="752"/>
      <point x="82" y="738" type="curve"/>
      <point x="109" y="555" type="line"/>
      <point x="149" y="571"/>
      <point x="194" y="576"/>
      <point x="240" y="576" type="curve" smooth="yes"/>
      <point x="365" y="576"/>
      <point x="428" y="517"/>
      <point x="428" y="387" type="curve" smooth="yes"/>
      <point x="428" y="347"/>
      <point x="428" y="328"/>
      <point x="428" y="308" type="curve"/>
      <point x="482" y="345" type="line"/>
      <point x="443" y="414"/>
      <point x="381" y="453"/>
      <point x="280" y="453" type="curve" smooth="yes"/>
      <point x="145" y="453"/>
      <point x="33" y="364"/>
      <point x="33" y="229" type="curve" smooth="yes"/>
      <point x="33" y="81"/>
      <point x="161" y="-16"/>
    </contour>
    <contour>
      <point x="340" y="147" type="curve" smooth="yes"/>
      <point x="297" y="147"/>
      <point x="263" y="174"/>
      <point x="263" y="218" type="curve" smooth="yes"/>
      <point x="263" y="262"/>
      <point x="297" y="290"/>
      <point x="340" y="290" type="curve" smooth="yes"/>
      <point x="383" y="290"/>
      <point x="417" y="262"/>
      <point x="417" y="218" type="curve" smooth="yes"/>
      <point x="417" y="174"/>
      <point x="383" y="147"/>
    </contour>
  </outline>
</glyph>
<glyph name="emptyset" format="2">
  <advance width="620"/>
  <unicode hex="2205"/>
  <outline>
    <contour>
      <point x="70" y="73" type="line"/>
      <point x="605" y="569" type="line"/>
      <point x="550" y="628" type="line"/>
      <point x="15" y="132" type="line"/>
    </contour>
    <contour>
      <point x="313" y="101" type="curve" smooth="yes"/>
      <point x="456" y="101"/>
      <point x="572" y="214"/>
      <point x="572" y="352" type="curve" smooth="yes"/>
      <point x="572" y="490"/>
      <point x="456" y="602"/>
      <point x="313" y="602" type="curve" smooth="yes"/>
      <point x="170" y="602"/>
      <point x="55" y="490"/>
      <point x="55" y="352" type="curve" smooth="yes"/>
      <point x="55" y="214"/>
      <point x="170" y="101"/>
    </contour>
    <contour>
      <point x="313" y="240" type="curve" smooth="yes"/>
      <point x="251" y="240"/>
      <point x="202" y="290"/>
      <point x="202" y="352" type="curve" smooth="yes"/>
      <point x="202" y="413"/>
      <point x="251" y="463"/>
      <point x="313" y="463" type="curve" smooth="yes"/>
      <point x="375" y="463"/>
      <point x="425" y="413"/>
      <point x="425" y="352" type="curve" smooth="yes"/>
      <point x="425" y="290"/>
      <point x="375" y="240"/>
    </contour>
  </outline>
</glyph>
<glyph name="radical" format="2">
  <advance width="840"/>
  <unicode hex="221A"/>
  <outline>
    <contour>
      <point x="651" y="742" type="line"/>
      <point x="429" y="12" type="line"/>
      <point x="471" y="12" type="line"/>
      <point x="354" y="435" type="line"/>
      <point x="55" y="435" type="line"/>
      <point x="55" y="265" type="line"/>
      <point x="187" y="265" type="line"/>
      <point x="333" y="-194" type="line"/>
      <point x="567" y="-194" type="line"/>
      <point x="859" y="742" type="line"/>
    </contour>
  </outline>
</glyph>
<glyph name="approxequal" format="2">
  <advance width="620"/>
  <unicode hex="2248"/>
  <outline>
    <contour>
      <point x="409" y="363" type="curve" smooth="yes"/>
      <point x="508" y="363"/>
      <point x="578" y="445"/>
      <point x="580" y="584" type="curve"/>
      <point x="442" y="584" type="line"/>
      <point x="440" y="544"/>
      <point x="420" y="521"/>
      <point x="391" y="521" type="curve" smooth="yes"/>
      <point x="346" y="521"/>
      <point x="302" y="596"/>
      <point x="211" y="596" type="curve" smooth="yes"/>
      <point x="112" y="596"/>
      <point x="42" y="514"/>
      <point x="40" y="375" type="curve"/>
      <point x="178" y="375" type="line"/>
      <point x="180" y="415"/>
      <point x="200" y="438"/>
      <point x="229" y="438" type="curve" smooth="yes"/>
      <point x="274" y="438"/>
      <point x="318" y="363"/>
    </contour>
    <contour>
      <point x="409" y="104" type="curve" smooth="yes"/>
      <point x="508" y="104"/>
      <point x="578" y="186"/>
      <point x="580" y="325" type="curve"/>
      <point x="442" y="325" type="line"/>
      <point x="440" y="285"/>
      <point x="420" y="262"/>
      <point x="391" y="262" type="curve" smooth="yes"/>
      <point x="346" y="262"/>
      <point x="302" y="337"/>
      <point x="211" y="337" type="curve" smooth="yes"/>
      <point x="112" y="337"/>
      <point x="42" y="255"/>
      <point x="40" y="116" type="curve"/>
      <point x="178" y="116" type="line"/>
      <point x="180" y="156"/>
      <point x="200" y="179"/>
      <point x="229" y="179" type="curve" smooth="yes"/>
      <point x="274" y="179"/>
      <point x="318" y="104"/>
    </contour>
  </outline>
</glyph>
<glyph name="leftWhiteTriangle" format="2">
  <advance width="600"/>
  <unicode hex="25C1"/>
  <outline>
    <contour>
      <point x="484" y="52" type="line"/>
      <point x="484" y="478" type="line"/>
      <point x="58" y="265" type="line"/>
    </contour>
    <contour>
      <point x="396" y="194" type="line"/>
      <point x="254" y="265" type="line"/>
      <point x="396" y="336" type="line"/>
    </contour>
  </outline>
</glyph>
<glyph name="rightanglebracket-math" format="2">
  <advance width="409"/>
  <unicode hex="27E9"/>
  <outline>
    <contour>
      <point x="226" y="742" type="line"/>
      <point x="17" y="742" type="line"/>
      <point x="178" y="274" type="line"/>
      <point x="17" y="-194" type="line"/>
      <point x="226" y="-194" type="line"/>
      <point x="398" y="274" type="line"/>
    </contour>
  </outline>
</glyph>
<glyph name="Saltillo" format="2">
  <advance width="342"/>
  <unicode hex="A78B"/>
  <outline>
    <contour>
      <point x="55" y="296" type="line"/>
      <point x="257" y="296" type="line"/>
      <point x="287" y="701" type="line"/>
      <point x="55" y="701" type="line"/>
    </contour>
  </outline>
</glyph>
<glyph name="Adieresis.alt" format="2">
  <advance width="806"/>
  <outline>
    <contour>
      <point x="-19" y="0" type="line"/>
      <point x="221" y="0" type="line"/>
      <point x="447" y="588" type="line"/>
      <point x="355" y="588" type="line"/>
      <point x="581" y="0" type="line"/>
      <point x="825" y="0" type="line"/>
      <point x="519" y="700" type="line"/>
      <point x="287" y="700" type="line"/>
    </contour>
    <contour>
      <point x="163" y="102" type="line"/>
      <point x="605" y="102" type="line"/>
      <point x="545" y="272" type="line"/>
      <point x="223" y="272" type="line"/>
    </contour>
    <contour>
      <point x="112" y="523" type="curve" smooth="yes"/>
      <point x="163" y="523"/>
      <point x="202" y="558"/>
      <point x="202" y="611" type="curve" smooth="yes"/>
      <point x="202" y="664"/>
      <point x="163" y="700"/>
      <point x="112" y="700" type="curve" smooth="yes"/>
      <point x="61" y="700"/>
      <point x="22" y="664"/>
      <point x="22" y="611" type="curve" smooth="yes"/>
      <point x="22" y="558"/>
      <point x="61" y="523"/>
    </contour>
    <contour>
      <point x="694" y="523" type="curve" smooth="yes"/>
      <point x="745" y="523"/>
      <point x="784" y="558"/>
      <point x="784" y="611" type="curve" smooth="yes"/>
      <point x="784" y="664"/>
      <point x="745" y="700"/>
      <point x="694" y="700" type="curve" smooth="yes"/>
      <point x="643" y="700"/>
      <point x="604" y="664"/>
      <point x="604" y="611" type="curve" smooth="yes"/>
      <point x="604" y="558"/>
      <point x="643" y="523"/>
    </contour>
  </outline>
</glyph>
<glyph name="El-cy.ss01" format="2">
  <advance width="814"/>
  <anchor x="532" y="0" name="#exit"/>
  <anchor x="532" y="0" name="bottomleft"/>
  <outline>
    <contour>
      <point x="95" y="0" type="line"/>
      <point x="331" y="0" type="line"/>
      <point x="331" y="406" type="line" smooth="yes"/>
      <point x="331" y="487"/>
      <point x="373" y="525"/>
      <point x="432" y="525" type="curve" smooth="yes"/>
      <point x="490" y="525"/>
      <point x="532" y="487"/>
      <point x="532" y="406" type="curve" smooth="yes"/>
      <point x="532" y="0" type="line"/>
      <point x="768" y="0" type="line"/>
      <point x="768" y="386" type="line" smooth="yes"/>
      <point x="768" y="596"/>
      <point x="630" y="716"/>
      <point x="432" y="716" type="curve" smooth="yes"/>
      <point x="233" y="716"/>
      <point x="95" y="596"/>
      <point x="95" y="386" type="curve" smooth="yes"/>
    </contour>
    <contour>
      <point x="16" y="183" type="line"/>
      <point x="17" y="0" type="line"/>
      <point x="206" y="0" type="line"/>
      <point x="206" y="183" type="line"/>
    </contour>
  </outline>
</glyph>
<glyph name="G.ss01" format="2">
  <advance width="769"/>
  <anchor x="410" y="3" name="bottom"/>
  <anchor x="424" y="701" name="top"/>
  <outline>
    <contour>
      <point x="383" y="-16" type="curve" smooth="yes"/>
      <point x="516" y="-16"/>
      <point x="615" y="40"/>
      <point x="663" y="189" type="curve"/>
      <point x="563" y="251" type="line"/>
      <point x="536" y="197"/>
      <point x="479" y="171"/>
      <point x="416" y="171" type="curve" smooth="yes"/>
      <point x="333" y="171"/>
      <point x="267" y="222"/>
      <point x="267" y="343" type="curve" smooth="yes"/>
      <point x="267" y="458"/>
      <point x="333" y="525"/>
      <point x="437" y="525" type="curve" smooth="yes"/>
      <point x="499" y="525"/>
      <point x="550" y="499"/>
      <point x="594" y="448" type="curve"/>
      <point x="745" y="581" type="line"/>
      <point x="674" y="668"/>
      <point x="563" y="716"/>
      <point x="425" y="716" type="curve" smooth="yes"/>
      <point x="194" y="716"/>
      <point x="29" y="565"/>
      <point x="29" y="341" type="curve" smooth="yes"/>
      <point x="29" y="110"/>
      <point x="188" y="-16"/>
    </contour>
    <contour>
      <point x="571" y="0" type="line"/>
      <point x="725" y="0" type="line"/>
      <point x="725" y="369" type="line"/>
      <point x="520" y="369" type="line"/>
      <point x="520" y="115" type="line"/>
      <point x="571" y="90" type="line"/>
    </contour>
  </outline>
</glyph>
<glyph name="Ghestroke-cy.loclBSH" format="2">
  <advance width="614"/>
  <outline>
    <contour>
      <point x="162" y="253" type="line"/>
      <point x="543" y="253" type="line"/>
      <point x="543" y="383" type="line"/>
      <point x="162" y="383" type="line"/>
    </contour>
    <component base="Ge-cy"/>
  </outline>
</glyph>
<glyph name="Nje-cy.ss01" format="2">
  <advance width="1141"/>
  <outline>
    <contour>
      <point x="800" y="-16" type="curve" smooth="yes"/>
      <point x="1012" y="-16"/>
      <point x="1122" y="73"/>
      <point x="1122" y="239" type="curve" smooth="yes"/>
      <point x="1122" y="382"/>
      <point x="1027" y="463"/>
      <point x="862" y="463" type="curve" smooth="yes"/>
      <point x="719" y="463" type="line"/>
      <point x="719" y="700" type="line"/>
      <point x="487" y="700" type="line"/>
      <point x="487" y="455" type="line"/>
      <point x="294" y="455" type="line"/>
      <point x="294" y="700" type="line"/>
      <point x="62" y="700" type="line"/>
      <point x="62" y="0" type="line"/>
      <point x="294" y="0" type="line"/>
      <point x="294" y="272" type="line"/>
      <point x="487" y="272" type="line"/>
      <point x="487" y="241" type="line" smooth="yes"/>
      <point x="487" y="70"/>
      <point x="591" y="-16"/>
    </contour>
    <contour>
      <point x="802" y="161" type="curve" smooth="yes"/>
      <point x="746" y="161"/>
      <point x="719" y="186"/>
      <point x="719" y="236" type="curve" smooth="yes"/>
      <point x="719" y="298" type="line"/>
      <point x="812" y="298" type="line" smooth="yes"/>
      <point x="859" y="298"/>
      <point x="885" y="275"/>
      <point x="885" y="232" type="curve" smooth="yes"/>
      <point x="885" y="189"/>
      <point x="854" y="161"/>
    </contour>
  </outline>
</glyph>
<glyph name="Udieresis.alt" format="2">
  <advance width="784"/>
  <outline>
    <contour>
      <point x="392" y="-16" type="curve" smooth="yes"/>
      <point x="607" y="-16"/>
      <point x="733" y="105"/>
      <point x="733" y="315" type="curve" smooth="yes"/>
      <point x="733" y="700" type="line"/>
      <point x="501" y="700" type="line"/>
      <point x="501" y="322" type="line" smooth="yes"/>
      <point x="501" y="215"/>
      <point x="460" y="175"/>
      <point x="394" y="175" type="curve" smooth="yes"/>
      <point x="328" y="175"/>
      <point x="287" y="215"/>
      <point x="287" y="322" type="curve" smooth="yes"/>
      <point x="287" y="700" type="line"/>
      <point x="51" y="700" type="line"/>
      <point x="51" y="315" type="line" smooth="yes"/>
      <point x="51" y="105"/>
      <point x="177" y="-16"/>
    </contour>
    <contour>
      <point x="323" y="533" type="curve" smooth="yes"/>
      <point x="374" y="533"/>
      <point x="413" y="568"/>
      <point x="413" y="621" type="curve" smooth="yes"/>
      <point x="413" y="674"/>
      <point x="374" y="710"/>
      <point x="323" y="710" type="curve" smooth="yes"/>
      <point x="272" y="710"/>
      <point x="233" y="674"/>
      <point x="233" y="621" type="curve" smooth="yes"/>
      <point x="233" y="568"/>
      <point x="272" y="533"/>
    </contour>
    <contour>
      <point x="465" y="533" type="curve" smooth="yes"/>
      <point x="516" y="533"/>
      <point x="555" y="568"/>
      <point x="555" y="621" type="curve" smooth="yes"/>
      <point x="555" y="674"/>
      <point x="516" y="710"/>
      <point x="465" y="710" type="curve" smooth="yes"/>
      <point x="414" y="710"/>
      <point x="375" y="674"/>
      <point x="375" y="621" type="curve" smooth="yes"/>
      <point x="375" y="568"/>
      <point x="414" y="533"/>
    </contour>
  </outline>
</glyph>
<glyph name="Udieresis.ss01.alt.BRACKET.133" format="2">
  <advance width="790"/>
  <outline>
    <contour>
      <point x="310" y="-16" type="curve" smooth="yes"/>
      <point x="420" y="-16"/>
      <point x="499" y="41"/>
      <point x="540" y="137" type="curve"/>
      <point x="504" y="181" type="line"/>
      <point x="504" y="0" type="line"/>
      <point x="733" y="0" type="line"/>
      <point x="733" y="700" type="line"/>
      <point x="497" y="700" type="line"/>
      <point x="497" y="310" type="line" smooth="yes"/>
      <point x="497" y="217"/>
      <point x="448" y="175"/>
      <point x="389" y="175" type="curve" smooth="yes"/>
      <point x="328" y="175"/>
      <point x="287" y="214"/>
      <point x="287" y="302" type="curve" smooth="yes"/>
      <point x="287" y="700" type="line"/>
      <point x="51" y="700" type="line"/>
      <point x="51" y="295" type="line" smooth="yes"/>
      <point x="51" y="95"/>
      <point x="147" y="-16"/>
    </contour>
    <contour>
      <point x="392" y="362" type="curve" smooth="yes"/>
      <point x="443" y="362"/>
      <point x="478" y="400"/>
      <point x="478" y="445" type="curve" smooth="yes"/>
      <point x="478" y="490"/>
      <point x="443" y="528"/>
      <point x="392" y="528" type="curve" smooth="yes"/>
      <point x="341" y="528"/>
      <point x="307" y="490"/>
      <point x="307" y="445" type="curve" smooth="yes"/>
      <point x="307" y="400"/>
      <point x="341" y="362"/>
    </contour>
    <contour>
      <point x="392" y="544" type="curve" smooth="yes"/>
      <point x="443" y="544"/>
      <point x="478" y="582"/>
      <point x="478" y="627" type="curve" smooth="yes"/>
      <point x="478" y="672"/>
      <point x="443" y="710"/>
      <point x="392" y="710" type="curve" smooth="yes"/>
      <point x="341" y="710"/>
      <point x="307" y="672"/>
      <point x="307" y="627" type="curve" smooth="yes"/>
      <point x="307" y="582"/>
      <point x="341" y="544"/>
    </contour>
  </outline>
</glyph>
<glyph name="ae.sc" format="2">
  <advance width="970"/>
  <anchor x="548" y="0" name="bottom"/>
  <anchor x="548" y="582" name="top"/>
  <outline>
    <contour>
      <point x="-18" y="0" type="line"/>
      <point x="216" y="0" type="line"/>
      <point x="456" y="503" type="line"/>
      <point x="319" y="414" type="line"/>
      <point x="514" y="414" type="line"/>
      <point x="514" y="582" type="line"/>
      <point x="283" y="582" type="line"/>
    </contour>
    <contour>
      <point x="201" y="90" type="line"/>
      <point x="514" y="90" type="line"/>
      <point x="514" y="244" type="line"/>
      <point x="200" y="244" type="line"/>
    </contour>
    <contour>
      <point x="645" y="372" type="line"/>
      <point x="645" y="218" type="line"/>
      <point x="898" y="218" type="line"/>
      <point x="898" y="372" type="line"/>
    </contour>
    <contour>
      <point x="661" y="165" type="line"/>
      <point x="661" y="417" type="line"/>
      <point x="932" y="417" type="line"/>
      <point x="932" y="582" type="line"/>
      <point x="435" y="582" type="line"/>
      <point x="435" y="0" type="line"/>
      <point x="943" y="0" type="line"/>
      <point x="943" y="165" type="line"/>
    </contour>
  </outline>
</glyph>
<glyph name="brevecomb-cy.case" format="2">
  <guideline x="249" y="748" angle="0"/>
  <guideline x="493" y="917" angle="0"/>
  <anchor x="247" y="700" name="_top"/>
  <outline>
    <contour>
      <point x="246" y="740" type="curve" smooth="yes"/>
      <point x="405" y="740"/>
      <point x="466" y="801"/>
      <point x="466" y="912" type="curve"/>
      <point x="309" y="912" type="line"/>
      <point x="309" y="868"/>
      <point x="292" y="848"/>
      <point x="246" y="848" type="curve" smooth="yes"/>
      <point x="200" y="848"/>
      <point x="185" y="868"/>
      <point x="185" y="912" type="curve"/>
      <point x="28" y="912" type="line"/>
      <point x="28" y="801"/>
      <point x="87" y="740"/>
    </contour>
  </outline>
</glyph>
<glyph name="brevecomb.loclVIET" format="2">
  <anchor x="300" y="547" name="_top"/>
  <anchor x="300" y="715" name="top"/>
  <outline>
    <contour>
      <point x="300" y="597" type="curve" smooth="yes"/>
      <point x="420" y="597"/>
      <point x="503" y="651"/>
      <point x="509" y="737" type="curve"/>
      <point x="382" y="737" type="line"/>
      <point x="378" y="712"/>
      <point x="346" y="695"/>
      <point x="300" y="695" type="curve" smooth="yes"/>
      <point x="254" y="695"/>
      <point x="222" y="712"/>
      <point x="218" y="737" type="curve"/>
      <point x="91" y="737" type="line"/>
      <point x="97" y="651"/>
      <point x="180" y="597"/>
    </contour>
  </outline>
</glyph>
<glyph name="caroncomb.alt.short" format="2">
  <anchor x="300" y="742" name="_topright"/>
  <outline>
    <contour>
      <point x="300" y="561" type="line"/>
      <point x="428" y="561" type="line"/>
      <point x="448" y="771" type="line"/>
      <point x="300" y="771" type="line"/>
    </contour>
  </outline>
</glyph>
<glyph name="commaaccentcomb.alt" format="2">
  <anchor x="300" y="547" name="_top"/>
  <outline>
    <contour>
      <point x="362" y="817" type="line"/>
      <point x="263" y="817" type="line"/>
      <point x="224" y="752" type="line" smooth="yes"/>
      <point x="203" y="716"/>
      <point x="199" y="691"/>
      <point x="199" y="672" type="curve" smooth="yes"/>
      <point x="199" y="627"/>
      <point x="233" y="597"/>
      <point x="289" y="597" type="curve" smooth="yes"/>
      <point x="345" y="597"/>
      <point x="379" y="627"/>
      <point x="379" y="672" type="curve" smooth="yes"/>
      <point x="379" y="718"/>
      <point x="349" y="745"/>
      <point x="289" y="745" type="curve"/>
      <point x="314" y="672" type="line"/>
    </contour>
  </outline>
</glyph>
<glyph name="d.sc" format="2">
  <advance width="718"/>
  <anchor x="315" y="0" name="bottom"/>
  <anchor x="190" y="295" name="center"/>
  <anchor x="314" y="582" name="top"/>
  <outline>
    <contour>
      <point x="53" y="0" type="line"/>
      <point x="353" y="0" type="line" smooth="yes"/>
      <point x="555" y="0"/>
      <point x="694" y="109"/>
      <point x="694" y="291" type="curve" smooth="yes"/>
      <point x="694" y="473"/>
      <point x="555" y="582"/>
      <point x="353" y="582" type="curve" smooth="yes"/>
      <point x="53" y="582" type="line"/>
    </contour>
    <contour>
      <point x="283" y="172" type="line"/>
      <point x="283" y="410" type="line"/>
      <point x="346" y="410" type="line" smooth="yes"/>
      <point x="412" y="410"/>
      <point x="462" y="372"/>
      <point x="462" y="291" type="curve" smooth="yes"/>
      <point x="462" y="210"/>
      <point x="412" y="172"/>
      <point x="346" y="172" type="curve" smooth="yes"/>
    </contour>
  </outline>
</glyph>
<glyph name="descender-cy" format="2">
  <advance width="388"/>
  <anchor x="36" y="0" name="_bottomleft"/>
  <outline>
    <contour>
      <point x="126" y="-101" type="line"/>
      <point x="335" y="-101" type="line"/>
      <point x="335" y="177" type="line"/>
      <point x="36" y="177" type="line"/>
      <point x="36" y="0" type="line"/>
      <point x="175" y="0" type="line"/>
      <point x="126" y="48" type="line"/>
    </contour>
  </outline>
</glyph>
<glyph name="descender-cy.short" format="2">
  <advance width="359"/>
  <anchor x="36" y="0" name="_bottomleft"/>
  <outline>
    <contour>
      <point x="103" y="-102" type="line"/>
      <point x="306" y="-102" type="line"/>
      <point x="306" y="173" type="line"/>
      <point x="36" y="173" type="line"/>
      <point x="36" y="0" type="line"/>
      <point x="151" y="0" type="line"/>
      <point x="103" y="47" type="line"/>
    </contour>
  </outline>
</glyph>
<glyph name="dieresiscomb.loclVIET" format="2">
  <anchor x="300" y="547" name="_top"/>
  <anchor x="300" y="730" name="top"/>
  <outline>
    <contour>
      <point x="406" y="599" type="curve" smooth="yes"/>
      <point x="454" y="599"/>
      <point x="491" y="632"/>
      <point x="491" y="682" type="curve" smooth="yes"/>
      <point x="491" y="732"/>
      <point x="454" y="766"/>
      <point x="406" y="766" type="curve" smooth="yes"/>
      <point x="358" y="766"/>
      <point x="321" y="732"/>
      <point x="321" y="682" type="curve" smooth="yes"/>
      <point x="321" y="632"/>
      <point x="358" y="599"/>
    </contour>
    <contour>
      <point x="194" y="599" type="curve" smooth="yes"/>
      <point x="242" y="599"/>
      <point x="279" y="632"/>
      <point x="279" y="682" type="curve" smooth="yes"/>
      <point x="279" y="732"/>
      <point x="242" y="766"/>
      <point x="194" y="766" type="curve" smooth="yes"/>
      <point x="146" y="766"/>
      <point x="109" y="732"/>
      <point x="109" y="682" type="curve" smooth="yes"/>
      <point x="109" y="632"/>
      <point x="146" y="599"/>
    </contour>
  </outline>
</glyph>
<glyph name="dollar.BRACKET.179" format="2">
  <advance width="657"/>
  <outline>
    <contour>
      <point x="318" y="-16" type="curve" smooth="yes"/>
      <point x="535" y="-16"/>
      <point x="644" y="92"/>
      <point x="644" y="220" type="curve" smooth="yes"/>
      <point x="644" y="478"/>
      <point x="257" y="408"/>
      <point x="257" y="492" type="curve" smooth="yes"/>
      <point x="257" y="516"/>
      <point x="279" y="536"/>
      <point x="348" y="536" type="curve" smooth="yes"/>
      <point x="409" y="536"/>
      <point x="474" y="519"/>
      <point x="543" y="484" type="curve"/>
      <point x="614" y="655" type="line"/>
      <point x="541" y="696"/>
      <point x="444" y="716"/>
      <point x="350" y="716" type="curve" smooth="yes"/>
      <point x="133" y="716"/>
      <point x="24" y="610"/>
      <point x="24" y="480" type="curve" smooth="yes"/>
      <point x="24" y="219"/>
      <point x="411" y="290"/>
      <point x="411" y="202" type="curve" smooth="yes"/>
      <point x="411" y="178"/>
      <point x="387" y="164"/>
      <point x="320" y="164" type="curve" smooth="yes"/>
      <point x="243" y="164"/>
      <point x="155" y="189"/>
      <point x="89" y="228" type="curve"/>
      <point x="13" y="56" type="line"/>
      <point x="83" y="13"/>
      <point x="201" y="-16"/>
    </contour>
    <contour>
      <point x="270" y="-120" type="line"/>
      <point x="411" y="-120" type="line"/>
      <point x="411" y="10" type="line"/>
      <point x="270" y="10" type="line"/>
    </contour>
    <contour>
      <point x="270" y="690" type="line"/>
      <point x="411" y="690" type="line"/>
      <point x="411" y="820" type="line"/>
      <point x="270" y="820" type="line"/>
    </contour>
  </outline>
</glyph>
<glyph name="eogonek.ss01" format="2">
  <advance width="653"/>
  <anchor x="338" y="0" name="bottom"/>
  <anchor x="338" y="547" name="top"/>
  <outline>
    <contour>
      <point x="463" y="-240" type="curve" smooth="yes"/>
      <point x="506" y="-240"/>
      <point x="552" y="-230"/>
      <point x="576" y="-217" type="curve"/>
      <point x="549" y="-124" type="line"/>
      <point x="534" y="-131"/>
      <point x="512" y="-138"/>
      <point x="492" y="-138" type="curve" smooth="yes"/>
      <point x="457" y="-138"/>
      <point x="437" y="-117"/>
      <point x="437" y="-92" type="curve" smooth="yes"/>
      <point x="437" y="-52"/>
      <point x="460" y="-19"/>
      <point x="548" y="41" type="curve" smooth="yes"/>
      <point x="564" y="52"/>
      <point x="578" y="64"/>
      <point x="591" y="78" type="curve"/>
      <point x="473" y="197" type="line"/>
      <point x="437" y="170"/>
      <point x="409" y="157"/>
      <point x="359" y="157" type="curve" smooth="yes"/>
      <point x="280" y="157"/>
      <point x="242" y="193"/>
      <point x="242" y="288" type="curve" smooth="yes"/>
      <point x="242" y="366"/>
      <point x="279" y="403"/>
      <point x="336" y="403" type="curve" smooth="yes"/>
      <point x="390" y="403"/>
      <point x="423" y="364"/>
      <point x="423" y="311" type="curve"/>
      <point x="498" y="362" type="line"/>
      <point x="212" y="306" type="line"/>
      <point x="212" y="196" type="line"/>
      <point x="632" y="277" type="line"/>
      <point x="632" y="459"/>
      <point x="494" y="557"/>
      <point x="335" y="557" type="curve" smooth="yes"/>
      <point x="155" y="557"/>
      <point x="21" y="440"/>
      <point x="21" y="274" type="curve" smooth="yes"/>
      <point x="21" y="111"/>
      <point x="151" y="-10"/>
      <point x="352" y="-10" type="curve" smooth="yes"/>
      <point x="389" y="-10"/>
      <point x="422" y="-7"/>
      <point x="451" y="0" type="curve"/>
      <point x="416" y="24" type="line"/>
      <point x="350" y="2"/>
      <point x="305" y="-55"/>
      <point x="305" y="-114" type="curve" smooth="yes"/>
      <point x="305" y="-192"/>
      <point x="363" y="-240"/>
    </contour>
  </outline>
</glyph>
<glyph name="exclam.sc" format="2">
  <advance width="314"/>
  <outline>
    <contour>
      <point x="67" y="248" type="line"/>
      <point x="247" y="248" type="line"/>
      <point x="287" y="582" type="line"/>
      <point x="27" y="582" type="line"/>
    </contour>
    <contour>
      <point x="157" y="-10" type="curve" smooth="yes"/>
      <point x="241" y="-10"/>
      <point x="289" y="44"/>
      <point x="289" y="100" type="curve" smooth="yes"/>
      <point x="289" y="157"/>
      <point x="241" y="208"/>
      <point x="157" y="208" type="curve" smooth="yes"/>
      <point x="73" y="208"/>
      <point x="25" y="157"/>
      <point x="25" y="100" type="curve" smooth="yes"/>
      <point x="25" y="44"/>
      <point x="73" y="-10"/>
    </contour>
  </outline>
</glyph>
<glyph name="ezh.sc" format="2">
  <advance width="594"/>
  <anchor x="288" y="0" name="bottom"/>
  <anchor x="288" y="582" name="top"/>
  <outline>
    <contour>
      <point x="273" y="-14" type="curve" smooth="yes"/>
      <point x="481" y="-14"/>
      <point x="569" y="87"/>
      <point x="569" y="189" type="curve" smooth="yes"/>
      <point x="569" y="291"/>
      <point x="481" y="365"/>
      <point x="318" y="365" type="curve" smooth="yes"/>
      <point x="262" y="365" type="line"/>
      <point x="363" y="308" type="line"/>
      <point x="533" y="454" type="line"/>
      <point x="533" y="582" type="line"/>
      <point x="49" y="582" type="line"/>
      <point x="49" y="425" type="line"/>
      <point x="378" y="425" type="line"/>
      <point x="360" y="495" type="line"/>
      <point x="190" y="349" type="line"/>
      <point x="190" y="220" type="line"/>
      <point x="274" y="220" type="line" smooth="yes"/>
      <point x="331" y="220"/>
      <point x="356" y="209"/>
      <point x="356" y="188" type="curve" smooth="yes"/>
      <point x="356" y="163"/>
      <point x="319" y="151"/>
      <point x="266" y="151" type="curve" smooth="yes"/>
      <point x="211" y="151"/>
      <point x="144" y="163"/>
      <point x="88" y="191" type="curve"/>
      <point x="20" y="36" type="line"/>
      <point x="88" y="2"/>
      <point x="186" y="-14"/>
    </contour>
  </outline>
</glyph>
<glyph name="f.sc" format="2">
  <advance width="566"/>
  <outline>
    <contour>
      <point x="267" y="339" type="line"/>
      <point x="267" y="174" type="line"/>
      <point x="516" y="174" type="line"/>
      <point x="516" y="339" type="line"/>
    </contour>
    <contour>
      <point x="283" y="0" type="line"/>
      <point x="283" y="417" type="line"/>
      <point x="550" y="417" type="line"/>
      <point x="550" y="582" type="line"/>
      <point x="53" y="582" type="line"/>
      <point x="53" y="0" type="line"/>
    </contour>
  </outline>
</glyph>
<glyph name="five.osf" format="2">
  <advance width="619"/>
  <outline>
    <contour>
      <point x="281" y="-116" type="curve" smooth="yes"/>
      <point x="505" y="-116"/>
      <point x="601" y="5"/>
      <point x="601" y="130" type="curve" smooth="yes"/>
      <point x="601" y="254"/>
      <point x="522" y="353"/>
      <point x="315" y="353" type="curve" smooth="yes"/>
      <point x="152" y="353" type="line"/>
      <point x="271" y="252" type="line"/>
      <point x="292" y="523" type="line"/>
      <point x="173" y="422" type="line"/>
      <point x="555" y="422" type="line"/>
      <point x="555" y="600" type="line"/>
      <point x="90" y="600" type="line"/>
      <point x="55" y="175" type="line"/>
      <point x="258" y="175" type="line" smooth="yes"/>
      <point x="343" y="175"/>
      <point x="364" y="155"/>
      <point x="364" y="125" type="curve" smooth="yes"/>
      <point x="364" y="89"/>
      <point x="325" y="70"/>
      <point x="272" y="70" type="curve" smooth="yes"/>
      <point x="213" y="70"/>
      <point x="145" y="86"/>
      <point x="85" y="121" type="curve"/>
      <point x="5" y="-53" type="line"/>
      <point x="80" y="-95"/>
      <point x="185" y="-116"/>
    </contour>
  </outline>
</glyph>
<glyph name="five.tosf" format="2">
  <advance width="700"/>
  <outline>
    <contour>
      <point x="325" y="-116" type="curve" smooth="yes"/>
      <point x="552" y="-116"/>
      <point x="648" y="5"/>
      <point x="648" y="127" type="curve" smooth="yes"/>
      <point x="648" y="256"/>
      <point x="569" y="353"/>
      <point x="332" y="353" type="curve" smooth="yes"/>
      <point x="172" y="353" type="line"/>
      <point x="295" y="252" type="line"/>
      <point x="316" y="523" type="line"/>
      <point x="195" y="422" type="line"/>
      <point x="597" y="422" type="line"/>
      <point x="597" y="600" type="line"/>
      <point x="117" y="600" type="line"/>
      <point x="78" y="175" type="line"/>
      <point x="295" y="175" type="line" smooth="yes"/>
      <point x="383" y="175"/>
      <point x="411" y="155"/>
      <point x="411" y="124" type="curve" smooth="yes"/>
      <point x="411" y="89"/>
      <point x="373" y="70"/>
      <point x="316" y="70" type="curve" smooth="yes"/>
      <point x="251" y="70"/>
      <point x="173" y="87"/>
      <point x="107" y="121" type="curve"/>
      <point x="27" y="-53" type="line"/>
      <point x="98" y="-92"/>
      <point x="216" y="-116"/>
    </contour>
  </outline>
</glyph>
<glyph name="fl.ss01" format="2">
  <advance width="793"/>
  <outline>
    <contour>
      <point x="686" y="-111" type="curve" smooth="yes"/>
      <point x="719" y="-111"/>
      <point x="749" y="-107"/>
      <point x="783" y="-97" type="curve"/>
      <point x="774" y="70" type="line"/>
      <point x="765" y="65"/>
      <point x="748" y="60"/>
      <point x="733" y="60" type="curve" smooth="yes"/>
      <point x="702" y="60"/>
      <point x="683" y="78"/>
      <point x="683" y="113" type="curve" smooth="yes"/>
      <point x="683" y="487" type="line" smooth="yes"/>
      <point x="683" y="645"/>
      <point x="582" y="752"/>
      <point x="379" y="752" type="curve" smooth="yes"/>
      <point x="176" y="752"/>
      <point x="75" y="645"/>
      <point x="75" y="487" type="curve" smooth="yes"/>
      <point x="75" y="0" type="line"/>
      <point x="301" y="0" type="line"/>
      <point x="301" y="493" type="line" smooth="yes"/>
      <point x="301" y="553"/>
      <point x="330" y="581"/>
      <point x="379" y="581" type="curve" smooth="yes"/>
      <point x="428" y="581"/>
      <point x="457" y="553"/>
      <point x="457" y="493" type="curve" smooth="yes"/>
      <point x="457" y="101" type="line" smooth="yes"/>
      <point x="457" y="-39"/>
      <point x="545" y="-111"/>
    </contour>
    <contour>
      <point x="0" y="352" type="line"/>
      <point x="413" y="352" type="line"/>
      <point x="413" y="517" type="line"/>
      <point x="0" y="517" type="line"/>
    </contour>
  </outline>
</glyph>
<glyph name="four.osf" format="2">
  <advance width="712"/>
  <outline>
    <contour>
      <point x="23" y="20" type="line"/>
      <point x="708" y="20" type="line"/>
      <point x="708" y="203" type="line"/>
      <point x="166" y="203" type="line"/>
      <point x="276" y="170" type="line"/>
      <point x="562" y="600" type="line"/>
      <point x="320" y="600" type="line"/>
      <point x="23" y="170" type="line"/>
    </contour>
    <contour>
      <point x="386" y="-100" type="line"/>
      <point x="615" y="-100" type="line"/>
      <point x="615" y="310" type="line"/>
      <point x="393" y="310" type="line"/>
      <point x="393" y="203" type="line"/>
      <point x="386" y="20" type="line"/>
    </contour>
  </outline>
</glyph>
<glyph name="g.sc" format="2">
  <advance width="666"/>
  <anchor x="352" y="0" name="bottom"/>
  <anchor x="366" y="583" name="top"/>
  <outline>
    <contour>
      <point x="551" y="11"/>
      <point x="626" y="59" type="curve"/>
      <point x="498" y="208" type="line"/>
      <point x="454" y="178"/>
      <point x="417" y="165"/>
      <point x="373" y="165" type="curve" smooth="yes"/>
      <point x="299" y="165"/>
      <point x="256" y="213"/>
      <point x="256" y="291" type="curve" smooth="yes"/>
      <point x="256" y="371"/>
      <point x="304" y="417"/>
      <point x="374" y="417" type="curve" smooth="yes"/>
      <point x="421" y="417"/>
      <point x="461" y="397"/>
      <point x="495" y="354" type="curve"/>
      <point x="646" y="479" type="line"/>
      <point x="586" y="556"/>
      <point x="497" y="597"/>
      <point x="374" y="597" type="curve" smooth="yes"/>
      <point x="168" y="597"/>
      <point x="24" y="468"/>
      <point x="24" y="291" type="curve" smooth="yes"/>
      <point x="24" y="114"/>
      <point x="159" y="-15"/>
      <point x="369" y="-15" type="curve" smooth="yes"/>
      <point x="447" y="-15"/>
    </contour>
    <contour>
      <point x="427" y="56" type="line"/>
      <point x="626" y="59" type="line"/>
      <point x="626" y="304" type="line"/>
      <point x="427" y="304" type="line"/>
    </contour>
  </outline>
</glyph>
<glyph name="ghestroke-cy.loclBSH" format="2">
  <advance width="553"/>
  <outline>
    <contour>
      <point x="53" y="0" type="line"/>
      <point x="278" y="0" type="line"/>
      <point x="278" y="371" type="line"/>
      <point x="540" y="371" type="line"/>
      <point x="540" y="547" type="line"/>
      <point x="53" y="547" type="line"/>
    </contour>
    <contour>
      <point x="164" y="169" type="line"/>
      <point x="480" y="169" type="line"/>
      <point x="480" y="289" type="line"/>
      <point x="164" y="289" type="line"/>
    </contour>
  </outline>
</glyph>
<glyph name="gstroke.sc" format="2">
  <advance width="695"/>
  <outline>
    <contour>
      <point x="324.5152" y="192.634" type="line"/>
      <point x="685.4048" y="192.634" type="line"/>
      <point x="685.4048" y="275.464" type="line"/>
      <point x="324.5152" y="275.464" type="line"/>
    </contour>
    <component base="g.sc"/>
  </outline>
</glyph>
<glyph name="gstroke.sc.ss01" format="2">
  <advance width="695"/>
  <outline>
    <contour>
      <point x="322.5152" y="192.63400000000001" type="line"/>
      <point x="683.4048" y="192.63400000000001" type="line"/>
      <point x="683.4048" y="275.464" type="line"/>
      <point x="322.5152" y="275.464" type="line"/>
    </contour>
    <component base="g.sc.ss01"/>
  </outline>
</glyph>
<glyph name="guilsinglleft.sc" format="2">
  <advance width="344"/>
  <outline>
    <contour>
      <point x="149" y="111" type="line"/>
      <point x="329" y="111" type="line"/>
      <point x="209" y="291" type="line"/>
      <point x="329" y="471" type="line"/>
      <point x="149" y="471" type="line"/>
      <point x="25" y="291" type="line"/>
    </contour>
  </outline>
</glyph>
<glyph name="hookabovecomb.loclVIET" format="2">
  <anchor x="300" y="547" name="_top"/>
  <anchor x="300" y="760" name="top"/>
  <outline>
    <contour>
      <point x="335" y="597" type="line"/>
      <point x="377" y="613"/>
      <point x="414" y="646"/>
      <point x="414" y="690" type="curve" smooth="yes"/>
      <point x="414" y="745"/>
      <point x="371" y="778"/>
      <point x="307" y="778" type="curve" smooth="yes"/>
      <point x="270" y="778"/>
      <point x="235" y="770"/>
      <point x="208" y="753" type="curve"/>
      <point x="242" y="692" type="line"/>
      <point x="258" y="700"/>
      <point x="272" y="704"/>
      <point x="288" y="704" type="curve" smooth="yes"/>
      <point x="305" y="704"/>
      <point x="317" y="694"/>
      <point x="317" y="679" type="curve" smooth="yes"/>
      <point x="317" y="669"/>
      <point x="310" y="656"/>
      <point x="283" y="642" type="curve"/>
    </contour>
  </outline>
</glyph>
<glyph name="i.sc.ss01" format="2">
  <advance width="472"/>
  <anchor x="236" y="0" name="bottom"/>
  <anchor x="351" y="0" name="ogonek"/>
  <anchor x="236" y="582" name="top"/>
  <anchor x="-10" y="582" name="topleft"/>
  <outline>
    <contour>
      <point x="121" y="18" type="line"/>
      <point x="351" y="18" type="line"/>
      <point x="351" y="565" type="line"/>
      <point x="121" y="565" type="line"/>
    </contour>
    <contour>
      <point x="39" y="0" type="line"/>
      <point x="433" y="0" type="line"/>
      <point x="433" y="165" type="line"/>
      <point x="39" y="165" type="line"/>
    </contour>
    <contour>
      <point x="39" y="417" type="line"/>
      <point x="433" y="417" type="line"/>
      <point x="433" y="582" type="line"/>
      <point x="39" y="582" type="line"/>
    </contour>
  </outline>
</glyph>
<glyph name="ij.sc" format="2">
  <advance width="642"/>
  <anchor x="151" y="582" name="top"/>
  <outline>
    <contour>
      <point x="276" y="-9" type="curve" smooth="yes"/>
      <point x="472" y="-9"/>
      <point x="594" y="96"/>
      <point x="594" y="282" type="curve" smooth="yes"/>
      <point x="594" y="582" type="line"/>
      <point x="364" y="582" type="line"/>
      <point x="364" y="270" type="line" smooth="yes"/>
      <point x="364" y="198"/>
      <point x="330" y="168"/>
      <point x="265" y="168" type="curve" smooth="yes"/>
      <point x="209" y="168"/>
      <point x="155" y="186"/>
      <point x="105" y="221" type="curve"/>
      <point x="22" y="61" type="line"/>
      <point x="85" y="18"/>
      <point x="166" y="-9"/>
    </contour>
    <contour>
      <point x="40" y="285" type="line"/>
      <point x="270" y="285" type="line"/>
      <point x="270" y="582" type="line"/>
      <point x="40" y="582" type="line"/>
    </contour>
  </outline>
</glyph>
<glyph name="iu-cy.loclBGR" format="2">
  <advance width="928"/>
  <outline>
    <contour>
      <point x="53" y="0" type="line"/>
      <point x="278" y="0" type="line"/>
      <point x="278" y="184" type="line"/>
      <point x="434" y="184" type="line"/>
      <point x="434" y="371" type="line"/>
      <point x="278" y="371" type="line"/>
      <point x="278" y="742" type="line"/>
      <point x="53" y="742" type="line"/>
    </contour>
    <contour>
      <point x="603" y="-10" type="curve" smooth="yes"/>
      <point x="782" y="-10"/>
      <point x="910" y="108"/>
      <point x="910" y="274" type="curve" smooth="yes"/>
      <point x="910" y="440"/>
      <point x="782" y="557"/>
      <point x="603" y="557" type="curve" smooth="yes"/>
      <point x="424" y="557"/>
      <point x="296" y="440"/>
      <point x="296" y="274" type="curve" smooth="yes"/>
      <point x="296" y="108"/>
      <point x="424" y="-10"/>
    </contour>
    <contour>
      <point x="603" y="166" type="curve" smooth="yes"/>
      <point x="556" y="166"/>
      <point x="519" y="203"/>
      <point x="519" y="274" type="curve" smooth="yes"/>
      <point x="519" y="345"/>
      <point x="556" y="381"/>
      <point x="603" y="381" type="curve" smooth="yes"/>
      <point x="650" y="381"/>
      <point x="687" y="345"/>
      <point x="687" y="274" type="curve" smooth="yes"/>
      <point x="687" y="203"/>
      <point x="650" y="166"/>
    </contour>
  </outline>
</glyph>
<glyph name="j.sc.ss01" format="2">
  <advance width="517"/>
  <anchor x="256" y="582" name="top"/>
  <outline>
    <contour>
      <point x="205" y="-98" type="curve" smooth="yes"/>
      <point x="375" y="-98"/>
      <point x="469" y="-16"/>
      <point x="469" y="161" type="curve" smooth="yes"/>
      <point x="469" y="582" type="line"/>
      <point x="44" y="582" type="line"/>
      <point x="44" y="414" type="line"/>
      <point x="242" y="414" type="line"/>
      <point x="242" y="138" type="line" smooth="yes"/>
      <point x="242" y="99"/>
      <point x="223" y="77"/>
      <point x="189" y="77" type="curve" smooth="yes"/>
      <point x="159" y="77"/>
      <point x="132" y="95"/>
      <point x="106" y="133" type="curve"/>
      <point x="-23" y="-8" type="line"/>
      <point x="27" y="-68"/>
      <point x="105" y="-98"/>
    </contour>
  </outline>
</glyph>
<glyph name="l.sc" format="2">
  <advance width="543"/>
  <anchor x="304" y="0" name="bottom"/>
  <anchor x="168" y="337" name="center"/>
  <anchor x="440" y="376" name="dot"/>
  <anchor x="168" y="582" name="top"/>
  <anchor x="370" y="582" name="topright"/>
  <outline>
    <contour>
      <point x="53" y="0" type="line"/>
      <point x="536" y="0" type="line"/>
      <point x="536" y="170" type="line"/>
      <point x="283" y="170" type="line"/>
      <point x="283" y="582" type="line"/>
      <point x="53" y="582" type="line"/>
    </contour>
  </outline>
</glyph>
<glyph name="l.ss01" format="2">
  <advance width="386"/>
  <anchor x="232" y="0" name="bottom"/>
  <anchor x="163" y="370" name="center"/>
  <anchor x="416" y="370" name="dot"/>
  <anchor x="163" y="742" name="top"/>
  <anchor x="346" y="742" name="topright"/>
  <outline>
    <contour>
      <point x="279" y="-10" type="curve" smooth="yes"/>
      <point x="312" y="-10"/>
      <point x="342" y="-6"/>
      <point x="376" y="4" type="curve"/>
      <point x="367" y="171" type="line"/>
      <point x="358" y="166"/>
      <point x="341" y="161"/>
      <point x="326" y="161" type="curve" smooth="yes"/>
      <point x="295" y="161"/>
      <point x="276" y="179"/>
      <point x="276" y="214" type="curve" smooth="yes"/>
      <point x="276" y="742" type="line"/>
      <point x="50" y="742" type="line"/>
      <point x="50" y="202" type="line" smooth="yes"/>
      <point x="50" y="62"/>
      <point x="138" y="-10"/>
    </contour>
  </outline>
</glyph>
<glyph name="leftArrow.case" format="2">
  <advance width="600"/>
  <outline>
    <contour>
      <point x="208" y="81" type="line"/>
      <point x="397" y="81" type="line"/>
      <point x="255" y="329" type="line"/>
      <point x="397" y="577" type="line"/>
      <point x="208" y="577" type="line"/>
      <point x="48" y="329" type="line"/>
    </contour>
    <contour>
      <point x="217" y="254" type="line"/>
      <point x="570" y="254" type="line"/>
      <point x="570" y="403" type="line"/>
      <point x="217" y="403" type="line"/>
    </contour>
  </outline>
</glyph>
<glyph name="m.sc.ss01" format="2">
  <advance width="1067"/>
  <anchor x="532" y="0" name="bottom"/>
  <anchor x="532" y="582" name="top"/>
  <outline>
    <contour>
      <point x="794" y="597" type="curve" smooth="yes"/>
      <point x="693" y="597"/>
      <point x="606" y="552"/>
      <point x="568" y="472" type="curve"/>
      <point x="645" y="462" type="line"/>
      <point x="613" y="551"/>
      <point x="546" y="597"/>
      <point x="449" y="597" type="curve" smooth="yes"/>
      <point x="353" y="597"/>
      <point x="283" y="554"/>
      <point x="247" y="478" type="curve"/>
      <point x="276" y="431" type="line"/>
      <point x="276" y="582" type="line"/>
      <point x="53" y="582" type="line"/>
      <point x="53" y="0" type="line"/>
      <point x="283" y="0" type="line"/>
      <point x="283" y="344" type="line" smooth="yes"/>
      <point x="283" y="393"/>
      <point x="308" y="417"/>
      <point x="354" y="417" type="curve" smooth="yes"/>
      <point x="399" y="417"/>
      <point x="421" y="394"/>
      <point x="421" y="350" type="curve" smooth="yes"/>
      <point x="421" y="0" type="line"/>
      <point x="651" y="0" type="line"/>
      <point x="651" y="344" type="line" smooth="yes"/>
      <point x="651" y="393"/>
      <point x="676" y="417"/>
      <point x="722" y="417" type="curve" smooth="yes"/>
      <point x="767" y="417"/>
      <point x="789" y="394"/>
      <point x="789" y="350" type="curve" smooth="yes"/>
      <point x="789" y="0" type="line"/>
      <point x="1019" y="0" type="line"/>
      <point x="1019" y="361" type="line" smooth="yes"/>
      <point x="1019" y="515"/>
      <point x="934" y="597"/>
    </contour>
  </outline>
</glyph>
<glyph name="macroncomb.loclVIET" format="2">
  <anchor x="300" y="547" name="_top"/>
  <anchor x="300" y="730" name="top"/>
  <outline>
    <contour>
      <point x="90" y="616" type="line"/>
      <point x="510" y="616" type="line"/>
      <point x="510" y="728" type="line"/>
      <point x="90" y="728" type="line"/>
    </contour>
  </outline>
</glyph>
<glyph name="n.sc" format="2">
  <advance width="710"/>
  <anchor x="355" y="0" name="bottom"/>
  <anchor x="355" y="582" name="top"/>
  <outline>
    <contour>
      <point x="53" y="0" type="line"/>
      <point x="277" y="0" type="line"/>
      <point x="277" y="323" type="line"/>
      <point x="189" y="323" type="line"/>
      <point x="468" y="0" type="line"/>
      <point x="657" y="0" type="line"/>
      <point x="657" y="582" type="line"/>
      <point x="433" y="582" type="line"/>
      <point x="433" y="259" type="line"/>
      <point x="519" y="259" type="line"/>
      <point x="242" y="582" type="line"/>
      <point x="53" y="582" type="line"/>
    </contour>
  </outline>
</glyph>
<glyph name="nje-cy.ss01" format="2">
  <advance width="1003"/>
  <outline>
    <contour>
      <point x="53" y="0" type="line"/>
      <point x="278" y="0" type="line"/>
      <point x="278" y="191" type="line"/>
      <point x="420" y="191" type="line"/>
      <point x="420" y="368" type="line"/>
      <point x="278" y="368" type="line"/>
      <point x="278" y="547" type="line"/>
      <point x="53" y="547" type="line"/>
    </contour>
    <contour>
      <point x="697" y="136" type="curve" smooth="yes"/>
      <point x="651" y="136"/>
      <point x="632" y="153"/>
      <point x="632" y="190" type="curve" smooth="yes"/>
      <point x="632" y="228" type="line"/>
      <point x="718" y="228" type="line" smooth="yes"/>
      <point x="747" y="228"/>
      <point x="761" y="213"/>
      <point x="761" y="184" type="curve" smooth="yes"/>
      <point x="761" y="151"/>
      <point x="741" y="136"/>
    </contour>
    <contour>
      <point x="683" y="-16" type="curve" smooth="yes"/>
      <point x="882" y="-16"/>
      <point x="991" y="58"/>
      <point x="991" y="191" type="curve" smooth="yes"/>
      <point x="991" y="306"/>
      <point x="911" y="368"/>
      <point x="763" y="368" type="curve" smooth="yes"/>
      <point x="632" y="368" type="line"/>
      <point x="632" y="547" type="line"/>
      <point x="407" y="547" type="line"/>
      <point x="407" y="198" type="line" smooth="yes"/>
      <point x="407" y="51"/>
      <point x="493" y="-16"/>
    </contour>
  </outline>
</glyph>
<glyph name="o.sc" format="2">
  <advance width="727"/>
  <anchor x="364" y="0" name="bottom"/>
  <anchor x="364" y="291" name="center"/>
  <anchor x="478" y="0" name="ogonek"/>
  <anchor x="364" y="582" name="top"/>
  <anchor x="29" y="582" name="topleft"/>
  <anchor x="492" y="582" name="topright"/>
  <outline>
    <contour>
      <point x="364" y="-15" type="curve" smooth="yes"/>
      <point x="560" y="-15"/>
      <point x="703" y="114"/>
      <point x="703" y="291" type="curve" smooth="yes"/>
      <point x="703" y="468"/>
      <point x="560" y="597"/>
      <point x="364" y="597" type="curve" smooth="yes"/>
      <point x="168" y="597"/>
      <point x="24" y="468"/>
      <point x="24" y="291" type="curve" smooth="yes"/>
      <point x="24" y="114"/>
      <point x="168" y="-15"/>
    </contour>
    <contour>
      <point x="364" y="165" type="curve" smooth="yes"/>
      <point x="301" y="165"/>
      <point x="256" y="217"/>
      <point x="256" y="291" type="curve" smooth="yes"/>
      <point x="256" y="365"/>
      <point x="301" y="417"/>
      <point x="364" y="417" type="curve" smooth="yes"/>
      <point x="427" y="417"/>
      <point x="471" y="365"/>
      <point x="471" y="291" type="curve" smooth="yes"/>
      <point x="471" y="217"/>
      <point x="427" y="165"/>
    </contour>
  </outline>
</glyph>
<glyph name="one.tosf" format="2">
  <advance width="700"/>
  <outline>
    <contour>
      <point x="489" y="72" type="line"/>
      <point x="489" y="600" type="line"/>
      <point x="138" y="600" type="line"/>
      <point x="138" y="422" type="line"/>
      <point x="359" y="422" type="line"/>
      <point x="258" y="518" type="line"/>
      <point x="258" y="72" type="line"/>
      <point x="364" y="178" type="line"/>
      <point x="118" y="178" type="line"/>
      <point x="118" y="0" type="line"/>
      <point x="614" y="0" type="line"/>
      <point x="614" y="178" type="line"/>
      <point x="383" y="178" type="line"/>
    </contour>
  </outline>
</glyph>
<glyph name="prime" format="2">
  <advance width="331"/>
  <outline>
    <contour>
      <point x="80" y="455" type="line"/>
      <point x="204" y="455" type="line"/>
      <point x="251" y="701" type="line"/>
      <point x="97" y="701" type="line"/>
    </contour>
  </outline>
</glyph>
<glyph name="q.sc.ss01" format="2">
  <advance width="727"/>
  <outline>
    <contour>
      <point x="249" y="-112" type="line"/>
      <point x="479" y="-112" type="line"/>
      <point x="479" y="24" type="line"/>
      <point x="469" y="87" type="line"/>
      <point x="469" y="275" type="line"/>
      <point x="257" y="275" type="line"/>
      <point x="257" y="87" type="line"/>
      <point x="249" y="24" type="line"/>
    </contour>
    <contour>
      <point x="364" y="-15" type="curve" smooth="yes"/>
      <point x="560" y="-15"/>
      <point x="703" y="113"/>
      <point x="703" y="291" type="curve" smooth="yes"/>
      <point x="703" y="468"/>
      <point x="560" y="597"/>
      <point x="364" y="597" type="curve" smooth="yes"/>
      <point x="167" y="597"/>
      <point x="24" y="468"/>
      <point x="24" y="291" type="curve" smooth="yes"/>
      <point x="24" y="113"/>
      <point x="167" y="-15"/>
    </contour>
    <contour>
      <point x="364" y="165" type="curve" smooth="yes"/>
      <point x="291" y="165"/>
      <point x="256" y="206"/>
      <point x="256" y="291" type="curve" smooth="yes"/>
      <point x="256" y="372"/>
      <point x="305" y="417"/>
      <point x="364" y="417" type="curve" smooth="yes"/>
      <point x="422" y="417"/>
      <point x="471" y="372"/>
      <point x="471" y="291" type="curve" smooth="yes"/>
      <point x="471" y="206"/>
      <point x="436" y="165"/>
    </contour>
  </outline>
</glyph>
<glyph name="schwa.sc.ss01" format="2">
  <advance width="686"/>
  <anchor x="342" y="0" name="bottom"/>
  <anchor x="342" y="582" name="top"/>
  <outline>
    <contour>
      <point x="342" y="-15" type="curve" smooth="yes"/>
      <point x="528" y="-15"/>
      <point x="662" y="108"/>
      <point x="662" y="291" type="curve" smooth="yes"/>
      <point x="662" y="471"/>
      <point x="524" y="597"/>
      <point x="333" y="597" type="curve" smooth="yes"/>
      <point x="205" y="597"/>
      <point x="103" y="545"/>
      <point x="48" y="483" type="curve"/>
      <point x="182" y="348" type="line"/>
      <point x="210" y="385"/>
      <point x="265" y="417"/>
      <point x="323" y="417" type="curve" smooth="yes"/>
      <point x="391" y="417"/>
      <point x="434" y="370"/>
      <point x="434" y="300" type="curve" smooth="yes"/>
      <point x="434" y="255" type="line" smooth="yes"/>
      <point x="434" y="188"/>
      <point x="409" y="141"/>
      <point x="342" y="141" type="curve" smooth="yes"/>
      <point x="260" y="141"/>
      <point x="237" y="195"/>
      <point x="255" y="274" type="curve"/>
      <point x="183" y="155" type="line"/>
      <point x="493" y="284" type="line"/>
      <point x="447" y="391" type="line"/>
      <point x="30" y="223" type="line"/>
      <point x="60" y="77"/>
      <point x="179" y="-15"/>
    </contour>
  </outline>
</glyph>
<glyph name="seven.osf" format="2">
  <advance width="645"/>
  <outline>
    <contour>
      <point x="129" y="-100" type="line"/>
      <point x="387" y="-100" type="line"/>
      <point x="620" y="455" type="line"/>
      <point x="620" y="600" type="line"/>
      <point x="21" y="600" type="line"/>
      <point x="21" y="315" type="line"/>
      <point x="216" y="315" type="line"/>
      <point x="216" y="524" type="line"/>
      <point x="124" y="417" type="line"/>
      <point x="456" y="417" type="line"/>
      <point x="393" y="516" type="line"/>
    </contour>
  </outline>
</glyph>
<glyph name="seven.tf" format="2">
  <advance width="700"/>
  <outline>
    <contour>
      <point x="147" y="0" type="line"/>
      <point x="402" y="0" type="line"/>
      <point x="658" y="555" type="line"/>
      <point x="658" y="700" type="line"/>
      <point x="49" y="700" type="line"/>
      <point x="49" y="415" type="line"/>
      <point x="244" y="415" type="line"/>
      <point x="244" y="624" type="line"/>
      <point x="152" y="517" type="line"/>
      <point x="494" y="517" type="line"/>
      <point x="431" y="616" type="line"/>
    </contour>
  </outline>
</glyph>
<glyph name="sha-cy.loclBGR" format="2">
  <advance width="1036"/>
  <anchor x="768" y="0" name="bottomleft"/>
  <anchor x="507" y="547" name="top"/>
  <outline>
    <contour>
      <point x="259" y="-10" type="curve" smooth="yes"/>
      <point x="360" y="-10"/>
      <point x="440" y="44"/>
      <point x="480" y="135" type="curve"/>
      <point x="411" y="146" type="line"/>
      <point x="437" y="38"/>
      <point x="517" y="-10"/>
      <point x="613" y="-10" type="curve" smooth="yes"/>
      <point x="698" y="-10"/>
      <point x="771" y="30"/>
      <point x="812" y="113" type="curve"/>
      <point x="768" y="157" type="line"/>
      <point x="768" y="0" type="line"/>
      <point x="983" y="0" type="line"/>
      <point x="983" y="547" type="line"/>
      <point x="757" y="547" type="line"/>
      <point x="757" y="280" type="line" smooth="yes"/>
      <point x="757" y="207"/>
      <point x="726" y="180"/>
      <point x="686" y="180" type="curve" smooth="yes"/>
      <point x="648" y="180"/>
      <point x="625" y="206"/>
      <point x="625" y="274" type="curve" smooth="yes"/>
      <point x="625" y="547" type="line"/>
      <point x="399" y="547" type="line"/>
      <point x="399" y="280" type="line" smooth="yes"/>
      <point x="399" y="207"/>
      <point x="368" y="180"/>
      <point x="328" y="180" type="curve" smooth="yes"/>
      <point x="292" y="180"/>
      <point x="267" y="206"/>
      <point x="267" y="274" type="curve" smooth="yes"/>
      <point x="267" y="547" type="line"/>
      <point x="41" y="547" type="line"/>
      <point x="41" y="235" type="line" smooth="yes"/>
      <point x="41" y="63"/>
      <point x="135" y="-10"/>
    </contour>
  </outline>
</glyph>
<glyph name="six.dnom" format="2">
  <advance width="430"/>
  <outline>
    <contour>
      <point x="231" y="-10" type="curve" smooth="yes"/>
      <point x="340" y="-10"/>
      <point x="421" y="48"/>
      <point x="421" y="137" type="curve" smooth="yes"/>
      <point x="421" y="217"/>
      <point x="349" y="270"/>
      <point x="265" y="270" type="curve" smooth="yes"/>
      <point x="200" y="270"/>
      <point x="159" y="252"/>
      <point x="130" y="210" type="curve"/>
      <point x="168" y="182" type="line"/>
      <point x="167" y="193"/>
      <point x="166" y="203"/>
      <point x="166" y="220" type="curve" smooth="yes"/>
      <point x="166" y="270"/>
      <point x="203" y="311"/>
      <point x="275" y="311" type="curve" smooth="yes"/>
      <point x="308" y="311"/>
      <point x="337" y="303"/>
      <point x="361" y="290" type="curve"/>
      <point x="416" y="395" type="line"/>
      <point x="383" y="413"/>
      <point x="329" y="425"/>
      <point x="276" y="425" type="curve" smooth="yes"/>
      <point x="114" y="425"/>
      <point x="10" y="329"/>
      <point x="10" y="192" type="curve" smooth="yes"/>
      <point x="10" y="65"/>
      <point x="98" y="-10"/>
    </contour>
    <contour>
      <point x="226" y="91" type="curve" smooth="yes"/>
      <point x="199" y="91"/>
      <point x="177" y="107"/>
      <point x="177" y="130" type="curve" smooth="yes"/>
      <point x="177" y="155"/>
      <point x="201" y="170"/>
      <point x="227" y="170" type="curve" smooth="yes"/>
      <point x="253" y="170"/>
      <point x="275" y="155"/>
      <point x="275" y="130" type="curve" smooth="yes"/>
      <point x="275" y="105"/>
      <point x="253" y="91"/>
    </contour>
  </outline>
</glyph>
<glyph name="six.tf" format="2">
  <advance width="700"/>
  <outline>
    <contour>
      <point x="373" y="-16" type="curve" smooth="yes"/>
      <point x="553" y="-16"/>
      <point x="679" y="81"/>
      <point x="679" y="229" type="curve" smooth="yes"/>
      <point x="679" y="364"/>
      <point x="568" y="453"/>
      <point x="424" y="453" type="curve" smooth="yes"/>
      <point x="321" y="453"/>
      <point x="254" y="419"/>
      <point x="212" y="345" type="curve"/>
      <point x="263" y="302" type="line"/>
      <point x="263" y="322"/>
      <point x="263" y="341"/>
      <point x="263" y="369" type="curve" smooth="yes"/>
      <point x="263" y="471"/>
      <point x="334" y="533"/>
      <point x="442" y="533" type="curve" smooth="yes"/>
      <point x="493" y="533"/>
      <point x="543" y="520"/>
      <point x="579" y="493" type="curve"/>
      <point x="664" y="662" type="line"/>
      <point x="614" y="696"/>
      <point x="530" y="716"/>
      <point x="441" y="716" type="curve" smooth="yes"/>
      <point x="179" y="716"/>
      <point x="29" y="541"/>
      <point x="29" y="328" type="curve" smooth="yes"/>
      <point x="29" y="114"/>
      <point x="160" y="-16"/>
    </contour>
    <contour>
      <point x="364" y="145" type="curve" smooth="yes"/>
      <point x="318" y="145"/>
      <point x="282" y="172"/>
      <point x="282" y="218" type="curve" smooth="yes"/>
      <point x="282" y="264"/>
      <point x="320" y="292"/>
      <point x="364" y="292" type="curve" smooth="yes"/>
      <point x="408" y="292"/>
      <point x="444" y="264"/>
      <point x="444" y="218" type="curve" smooth="yes"/>
      <point x="444" y="172"/>
      <point x="408" y="145"/>
    </contour>
  </outline>
</glyph>
<glyph name="softsign-cy.loclBGR" format="2">
  <advance width="631"/>
  <outline>
    <contour>
      <point x="327" y="-16" type="curve" smooth="yes"/>
      <point x="498" y="-16"/>
      <point x="616" y="54"/>
      <point x="616" y="205" type="curve" smooth="yes"/>
      <point x="616" y="349"/>
      <point x="528" y="410"/>
      <point x="398" y="410" type="curve" smooth="yes"/>
      <point x="335" y="410"/>
      <point x="291" y="398"/>
      <point x="267" y="386" type="curve"/>
      <point x="267" y="547" type="line"/>
      <point x="42" y="547" type="line"/>
      <point x="42" y="221" type="line" smooth="yes"/>
      <point x="42" y="63"/>
      <point x="133" y="-16"/>
    </contour>
    <contour>
      <point x="326" y="136" type="curve" smooth="yes"/>
      <point x="285" y="136"/>
      <point x="267" y="162"/>
      <point x="267" y="200" type="curve" smooth="yes"/>
      <point x="267" y="241" type="line"/>
      <point x="280" y="255"/>
      <point x="301" y="265"/>
      <point x="329" y="265" type="curve" smooth="yes"/>
      <point x="367" y="265"/>
      <point x="386" y="241"/>
      <point x="386" y="201" type="curve" smooth="yes"/>
      <point x="386" y="163"/>
      <point x="369" y="136"/>
    </contour>
  </outline>
</glyph>
<glyph name="softsign-cy.ss01" format="2">
  <advance width="641"/>
  <outline>
    <contour>
      <point x="332" y="-16" type="curve" smooth="yes"/>
      <point x="506" y="-16"/>
      <point x="626" y="54"/>
      <point x="626" y="205" type="curve" smooth="yes"/>
      <point x="626" y="349"/>
      <point x="536" y="410"/>
      <point x="403" y="410" type="curve" smooth="yes"/>
      <point x="337" y="410"/>
      <point x="292" y="398"/>
      <point x="267" y="386" type="curve"/>
      <point x="267" y="547" type="line"/>
      <point x="42" y="547" type="line"/>
      <point x="42" y="221" type="line" smooth="yes"/>
      <point x="42" y="63"/>
      <point x="135" y="-16"/>
    </contour>
    <contour>
      <point x="331" y="136" type="curve" smooth="yes"/>
      <point x="287" y="136"/>
      <point x="267" y="162"/>
      <point x="267" y="200" type="curve" smooth="yes"/>
      <point x="267" y="241" type="line"/>
      <point x="281" y="255"/>
      <point x="304" y="265"/>
      <point x="334" y="265" type="curve" smooth="yes"/>
      <point x="375" y="265"/>
      <point x="396" y="241"/>
      <point x="396" y="201" type="curve" smooth="yes"/>
      <point x="396" y="163"/>
      <point x="377" y="136"/>
    </contour>
  </outline>
</glyph>
<glyph name="t.sc.ss01" format="2">
  <advance width="598"/>
  <anchor x="299" y="0" name="bottom"/>
  <anchor x="299" y="243" name="center"/>
  <anchor x="299" y="583" name="top"/>
  <outline>
    <contour>
      <point x="57" y="358" type="line"/>
      <point x="128" y="397"/>
      <point x="201" y="420"/>
      <point x="299" y="420" type="curve" smooth="yes"/>
      <point x="397" y="420"/>
      <point x="469" y="397"/>
      <point x="541" y="358" type="curve"/>
      <point x="616" y="517" type="line"/>
      <point x="529" y="569"/>
      <point x="416" y="597"/>
      <point x="299" y="597" type="curve" smooth="yes"/>
      <point x="182" y="597"/>
      <point x="69" y="569"/>
      <point x="-18" y="517" type="curve"/>
    </contour>
    <contour>
      <point x="184" y="0" type="line"/>
      <point x="414" y="0" type="line"/>
      <point x="414" y="493" type="line"/>
      <point x="184" y="493" type="line"/>
    </contour>
  </outline>
</glyph>
<glyph name="te-cy.loclSRB" format="2">
  <advance width="1036"/>
  <outline>
    <contour>
      <point x="87" y="628" type="line"/>
      <point x="927" y="628" type="line"/>
      <point x="927" y="746" type="line"/>
      <point x="87" y="746" type="line"/>
    </contour>
    <component base="sha-cy.loclBGR"/>
  </outline>
</glyph>
<glyph name="three.osf" format="2">
  <advance width="614"/>
  <outline>
    <contour>
      <point x="270" y="-116" type="curve" smooth="yes"/>
      <point x="494" y="-116"/>
      <point x="590" y="4"/>
      <point x="590" y="124" type="curve" smooth="yes"/>
      <point x="590" y="248"/>
      <point x="496" y="335"/>
      <point x="320" y="335" type="curve" smooth="yes"/>
      <point x="258" y="335" type="line"/>
      <point x="371" y="271" type="line"/>
      <point x="552" y="455" type="line"/>
      <point x="552" y="600" type="line"/>
      <point x="30" y="600" type="line"/>
      <point x="30" y="422" type="line"/>
      <point x="379" y="422" type="line"/>
      <point x="358" y="501" type="line"/>
      <point x="177" y="317" type="line"/>
      <point x="177" y="172" type="line"/>
      <point x="270" y="172" type="line" smooth="yes"/>
      <point x="330" y="172"/>
      <point x="353" y="154"/>
      <point x="353" y="124" type="curve" smooth="yes"/>
      <point x="353" y="88"/>
      <point x="315" y="70"/>
      <point x="262" y="70" type="curve" smooth="yes"/>
      <point x="203" y="70"/>
      <point x="134" y="86"/>
      <point x="74" y="121" type="curve"/>
      <point x="-6" y="-53" type="line"/>
      <point x="69" y="-95"/>
      <point x="174" y="-116"/>
    </contour>
  </outline>
</glyph>
<glyph name="three.tosf" format="2">
  <advance width="700"/>
  <outline>
    <contour>
      <point x="332" y="-116" type="curve" smooth="yes"/>
      <point x="564" y="-116"/>
      <point x="660" y="4"/>
      <point x="660" y="124" type="curve" smooth="yes"/>
      <point x="660" y="248"/>
      <point x="566" y="335"/>
      <point x="390" y="335" type="curve" smooth="yes"/>
      <point x="328" y="335" type="line"/>
      <point x="427" y="271" type="line"/>
      <point x="622" y="455" type="line"/>
      <point x="622" y="600" type="line"/>
      <point x="67" y="600" type="line"/>
      <point x="67" y="422" type="line"/>
      <point x="449" y="422" type="line"/>
      <point x="426" y="501" type="line"/>
      <point x="231" y="317" type="line"/>
      <point x="231" y="172" type="line"/>
      <point x="340" y="172" type="line" smooth="yes"/>
      <point x="401" y="172"/>
      <point x="423" y="154"/>
      <point x="423" y="124" type="curve" smooth="yes"/>
      <point x="423" y="88"/>
      <point x="391" y="70"/>
      <point x="326" y="70" type="curve" smooth="yes"/>
      <point x="257" y="70"/>
      <point x="175" y="91"/>
      <point x="109" y="131" type="curve"/>
      <point x="29" y="-43" type="line"/>
      <point x="100" y="-88"/>
      <point x="217" y="-116"/>
    </contour>
  </outline>
</glyph>
<glyph name="u.sc.ss01" format="2">
  <advance width="701"/>
  <anchor x="349" y="0" name="bottom"/>
  <anchor x="648" y="0" name="ogonek"/>
  <anchor x="349" y="582" name="top"/>
  <anchor x="547" y="582" name="topright"/>
  <outline>
    <contour>
      <point x="267" y="-15" type="curve" smooth="yes"/>
      <point x="359" y="-15"/>
      <point x="428" y="27"/>
      <point x="465" y="102" type="curve"/>
      <point x="425" y="151" type="line"/>
      <point x="425" y="0" type="line"/>
      <point x="648" y="0" type="line"/>
      <point x="648" y="582" type="line"/>
      <point x="418" y="582" type="line"/>
      <point x="418" y="256" type="line" smooth="yes"/>
      <point x="418" y="191"/>
      <point x="380" y="165"/>
      <point x="342" y="165" type="curve" smooth="yes"/>
      <point x="305" y="165"/>
      <point x="278" y="188"/>
      <point x="278" y="251" type="curve" smooth="yes"/>
      <point x="278" y="582" type="line"/>
      <point x="48" y="582" type="line"/>
      <point x="48" y="236" type="line" smooth="yes"/>
      <point x="48" y="77"/>
      <point x="128" y="-15"/>
    </contour>
  </outline>
</glyph>
<glyph name="udieresis.sc.ss01.alt.BRACKET.133" format="2">
  <advance width="701"/>
  <outline>
    <contour>
      <point x="347" y="362" type="curve" smooth="yes"/>
      <point x="380" y="362"/>
      <point x="403" y="387"/>
      <point x="403" y="416" type="curve" smooth="yes"/>
      <point x="403" y="444"/>
      <point x="380" y="469"/>
      <point x="347" y="469" type="curve" smooth="yes"/>
      <point x="315" y="469"/>
      <point x="293" y="444"/>
      <point x="293" y="416" type="curve" smooth="yes"/>
      <point x="293" y="387"/>
      <point x="315" y="362"/>
    </contour>
    <contour>
      <point x="347" y="490" type="curve" smooth="yes"/>
      <point x="380" y="490"/>
      <point x="403" y="515"/>
      <point x="403" y="543" type="curve" smooth="yes"/>
      <point x="403" y="573"/>
      <point x="380" y="597"/>
      <point x="347" y="597" type="curve" smooth="yes"/>
      <point x="315" y="597"/>
      <point x="293" y="573"/>
      <point x="293" y="543" type="curve" smooth="yes"/>
      <point x="293" y="515"/>
      <point x="315" y="490"/>
    </contour>
    <contour>
      <point x="267" y="-15" type="curve" smooth="yes"/>
      <point x="359" y="-15"/>
      <point x="428" y="27"/>
      <point x="465" y="102" type="curve"/>
      <point x="425" y="151" type="line"/>
      <point x="425" y="0" type="line"/>
      <point x="648" y="0" type="line"/>
      <point x="648" y="582" type="line"/>
      <point x="418" y="582" type="line"/>
      <point x="418" y="256" type="line" smooth="yes"/>
      <point x="418" y="191"/>
      <point x="380" y="165"/>
      <point x="342" y="165" type="curve" smooth="yes"/>
      <point x="305" y="165"/>
      <point x="278" y="188"/>
      <point x="278" y="251" type="curve" smooth="yes"/>
      <point x="278" y="582" type="line"/>
      <point x="48" y="582" type="line"/>
      <point x="48" y="236" type="line" smooth="yes"/>
      <point x="48" y="77"/>
      <point x="128" y="-15"/>
    </contour>
  </outline>
</glyph>
<glyph name="ve-cy.loclBGR" format="2">
  <advance width="657"/>
  <outline>
    <contour>
      <point x="40" y="210" type="line" smooth="yes"/>
      <point x="40" y="59"/>
      <point x="191" y="-14"/>
      <point x="341" y="-14" type="curve" smooth="yes"/>
      <point x="492" y="-14"/>
      <point x="642" y="59"/>
      <point x="642" y="213" type="curve" smooth="yes"/>
      <point x="642" y="320"/>
      <point x="549" y="412"/>
      <point x="376" y="412" type="curve"/>
      <point x="356" y="358" type="line"/>
      <point x="516" y="358"/>
      <point x="608" y="448"/>
      <point x="608" y="550" type="curve" smooth="yes"/>
      <point x="608" y="686"/>
      <point x="471" y="756"/>
      <point x="330" y="756" type="curve" smooth="yes"/>
      <point x="187" y="756"/>
      <point x="40" y="682"/>
      <point x="40" y="520" type="curve" smooth="yes"/>
    </contour>
    <contour>
      <point x="265" y="225" type="curve" smooth="yes"/>
      <point x="265" y="300" type="line"/>
      <point x="346" y="300" type="line" smooth="yes"/>
      <point x="390" y="300"/>
      <point x="412" y="277"/>
      <point x="412" y="227" type="curve" smooth="yes"/>
      <point x="412" y="178"/>
      <point x="373" y="155"/>
      <point x="336" y="155" type="curve" smooth="yes"/>
      <point x="300" y="155"/>
      <point x="265" y="176"/>
    </contour>
    <contour>
      <point x="265" y="456" type="line"/>
      <point x="265" y="515" type="line" smooth="yes"/>
      <point x="265" y="564"/>
      <point x="294" y="584"/>
      <point x="322" y="584" type="curve" smooth="yes"/>
      <point x="352" y="584"/>
      <point x="381" y="563"/>
      <point x="381" y="522" type="curve" smooth="yes"/>
      <point x="381" y="474"/>
      <point x="361" y="456"/>
      <point x="315" y="456" type="curve" smooth="yes"/>
    </contour>
  </outline>
</glyph>
<glyph name="w.sc" format="2">
  <advance width="1047"/>
  <anchor x="524" y="0" name="bottom"/>
  <anchor x="524" y="582" name="top"/>
  <outline>
    <contour>
      <point x="195" y="0" type="line"/>
      <point x="441" y="0" type="line"/>
      <point x="558" y="384" type="line"/>
      <point x="493" y="384" type="line"/>
      <point x="606" y="0" type="line"/>
      <point x="852" y="0" type="line"/>
      <point x="1040" y="582" type="line"/>
      <point x="820" y="582" type="line"/>
      <point x="666" y="97" type="line"/>
      <point x="779" y="97" type="line"/>
      <point x="636" y="582" type="line"/>
      <point x="425" y="582" type="line"/>
      <point x="269" y="97" type="line"/>
      <point x="388" y="97" type="line"/>
      <point x="241" y="582" type="line"/>
      <point x="7" y="582" type="line"/>
    </contour>
  </outline>
</glyph>
<glyph name="w.sc.ss01" format="2">
  <advance width="1062"/>
  <anchor x="531" y="0" name="bottom"/>
  <anchor x="531" y="582" name="top"/>
  <outline>
    <contour>
      <point x="347" y="-15" type="curve" smooth="yes"/>
      <point x="451" y="-15"/>
      <point x="523" y="15"/>
      <point x="573" y="76" type="curve"/>
      <point x="490" y="76" type="line"/>
      <point x="540" y="15"/>
      <point x="611" y="-15"/>
      <point x="715" y="-15" type="curve" smooth="yes"/>
      <point x="900" y="-15"/>
      <point x="1014" y="80"/>
      <point x="1014" y="239" type="curve" smooth="yes"/>
      <point x="1014" y="582" type="line"/>
      <point x="784" y="582" type="line"/>
      <point x="784" y="242" type="line" smooth="yes"/>
      <point x="784" y="191"/>
      <point x="757" y="165"/>
      <point x="713" y="165" type="curve" smooth="yes"/>
      <point x="670" y="165"/>
      <point x="646" y="189"/>
      <point x="646" y="242" type="curve" smooth="yes"/>
      <point x="646" y="582" type="line"/>
      <point x="416" y="582" type="line"/>
      <point x="416" y="242" type="line" smooth="yes"/>
      <point x="416" y="188"/>
      <point x="391" y="165"/>
      <point x="348" y="165" type="curve" smooth="yes"/>
      <point x="304" y="165"/>
      <point x="278" y="189"/>
      <point x="278" y="242" type="curve" smooth="yes"/>
      <point x="278" y="582" type="line"/>
      <point x="48" y="582" type="line"/>
      <point x="48" y="239" type="line" smooth="yes"/>
      <point x="48" y="80"/>
      <point x="165" y="-15"/>
    </contour>
  </outline>
</glyph>
<glyph name="y.sc" format="2">
  <advance width="638"/>
  <anchor x="319" y="0" name="bottom"/>
  <anchor x="319" y="582" name="top"/>
  <outline>
    <contour>
      <point x="204" y="0" type="line"/>
      <point x="434" y="0" type="line"/>
      <point x="434" y="261" type="line"/>
      <point x="392" y="128" type="line"/>
      <point x="665" y="582" type="line"/>
      <point x="437" y="582" type="line"/>
      <point x="262" y="286" type="line"/>
      <point x="390" y="286" type="line"/>
      <point x="215" y="582" type="line"/>
      <point x="-27" y="582" type="line"/>
      <point x="246" y="128" type="line"/>
      <point x="204" y="261" type="line"/>
    </contour>
  </outline>
</glyph>
<glyph name="ze-cy.loclBGR" format="2">
  <advance width="537"/>
  <outline>
    <contour>
      <point x="214" y="-200" type="curve" smooth="yes"/>
      <point x="386" y="-200"/>
      <point x="521" y="-111"/>
      <point x="521" y="30" type="curve" smooth="yes"/>
      <point x="521" y="139"/>
      <point x="445" y="208"/>
      <point x="327" y="208" type="curve"/>
      <point x="322" y="184" type="line"/>
      <point x="422" y="184"/>
      <point x="498" y="263"/>
      <point x="498" y="364" type="curve" smooth="yes"/>
      <point x="498" y="481"/>
      <point x="395" y="557"/>
      <point x="235" y="557" type="curve" smooth="yes"/>
      <point x="160" y="557"/>
      <point x="82" y="542"/>
      <point x="1" y="512" type="curve"/>
      <point x="58" y="361" type="line"/>
      <point x="125" y="377"/>
      <point x="172" y="385"/>
      <point x="204" y="385" type="curve" smooth="yes"/>
      <point x="250" y="385"/>
      <point x="275" y="365"/>
      <point x="275" y="329" type="curve" smooth="yes"/>
      <point x="275" y="286"/>
      <point x="250" y="263"/>
      <point x="210" y="263" type="curve" smooth="yes"/>
      <point x="98" y="263" type="line"/>
      <point x="98" y="101" type="line"/>
      <point x="232" y="101" type="line" smooth="yes"/>
      <point x="276" y="101"/>
      <point x="298" y="86"/>
      <point x="298" y="44" type="curve" smooth="yes"/>
      <point x="298" y="-3"/>
      <point x="262" y="-28"/>
      <point x="199" y="-28" type="curve" smooth="yes"/>
      <point x="158" y="-28"/>
      <point x="107" y="-19"/>
      <point x="47" y="-2" type="curve"/>
      <point x="-9" y="-153" type="line"/>
      <point x="67" y="-185"/>
      <point x="144" y="-200"/>
    </contour>
  </outline>
</glyph>
<glyph name="zero.dnom" format="2">
  <advance width="430"/>
  <outline>
    <contour>
      <point x="215" y="-10" type="curve" smooth="yes"/>
      <point x="337" y="-10"/>
      <point x="421" y="69"/>
      <point x="421" y="208" type="curve" smooth="yes"/>
      <point x="421" y="346"/>
      <point x="337" y="425"/>
      <point x="215" y="425" type="curve" smooth="yes"/>
      <point x="93" y="425"/>
      <point x="9" y="346"/>
      <point x="9" y="208" type="curve" smooth="yes"/>
      <point x="9" y="69"/>
      <point x="93" y="-10"/>
    </contour>
    <contour>
      <point x="215" y="107" type="curve" smooth="yes"/>
      <point x="187" y="107"/>
      <point x="165" y="132"/>
      <point x="165" y="208" type="curve" smooth="yes"/>
      <point x="165" y="284"/>
      <point x="187" y="308"/>
      <point x="215" y="308" type="curve" smooth="yes"/>
      <point x="243" y="308"/>
      <point x="265" y="284"/>
      <point x="265" y="208" type="curve" smooth="yes"/>
      <point x="265" y="132"/>
      <point x="243" y="107"/>
    </contour>
  </outline>
</glyph>
<glyph name="zero.osf" format="2">
  <advance width="706"/>
  <outline>
    <contour>
      <point x="353" y="-16" type="curve" smooth="yes"/>
      <point x="538" y="-16"/>
      <point x="672" y="111"/>
      <point x="672" y="300" type="curve" smooth="yes"/>
      <point x="672" y="489"/>
      <point x="538" y="616"/>
      <point x="353" y="616" type="curve" smooth="yes"/>
      <point x="168" y="616"/>
      <point x="34" y="489"/>
      <point x="34" y="300" type="curve" smooth="yes"/>
      <point x="34" y="111"/>
      <point x="168" y="-16"/>
    </contour>
    <contour>
      <point x="353" y="166" type="curve" smooth="yes"/>
      <point x="304" y="166"/>
      <point x="266" y="209"/>
      <point x="266" y="300" type="curve" smooth="yes"/>
      <point x="266" y="391"/>
      <point x="304" y="434"/>
      <point x="353" y="434" type="curve" smooth="yes"/>
      <point x="402" y="434"/>
      <point x="440" y="391"/>
      <point x="440" y="300" type="curve" smooth="yes"/>
      <point x="440" y="209"/>
      <point x="402" y="166"/>
    </contour>
  </outline>
</glyph>
<glyph name="zero.tf" format="2">
  <advance width="700"/>
  <outline>
    <contour>
      <point x="350" y="-16" type="curve" smooth="yes"/>
      <point x="538" y="-16"/>
      <point x="672" y="118"/>
      <point x="672" y="350" type="curve" smooth="yes"/>
      <point x="672" y="582"/>
      <point x="538" y="716"/>
      <point x="350" y="716" type="curve" smooth="yes"/>
      <point x="162" y="716"/>
      <point x="28" y="582"/>
      <point x="28" y="350" type="curve" smooth="yes"/>
      <point x="28" y="118"/>
      <point x="162" y="-16"/>
    </contour>
    <contour>
      <point x="350" y="173" type="curve" smooth="yes"/>
      <point x="302" y="173"/>
      <point x="265" y="215"/>
      <point x="265" y="350" type="curve" smooth="yes"/>
      <point x="265" y="485"/>
      <point x="302" y="527"/>
      <point x="350" y="527" type="curve" smooth="yes"/>
      <point x="398" y="527"/>
      <point x="435" y="485"/>
      <point x="435" y="350" type="curve" smooth="yes"/>
      <point x="435" y="215"/>
      <point x="398" y="173"/>
    </contour>
  </outline>
</glyph>
<glyph name="zero.tosf" format="2">
  <advance width="700"/>
  <outline>
    <contour>
      <point x="350" y="-16" type="curve" smooth="yes"/>
      <point x="538" y="-16"/>
      <point x="674" y="110"/>
      <point x="674" y="300" type="curve" smooth="yes"/>
      <point x="674" y="490"/>
      <point x="538" y="616"/>
      <point x="350" y="616" type="curve" smooth="yes"/>
      <point x="162" y="616"/>
      <point x="26" y="490"/>
      <point x="26" y="300" type="curve" smooth="yes"/>
      <point x="26" y="110"/>
      <point x="162" y="-16"/>
    </contour>
    <contour>
      <point x="350" y="167" type="curve" smooth="yes"/>
      <point x="298" y="167"/>
      <point x="258" y="211"/>
      <point x="258" y="300" type="curve" smooth="yes"/>
      <point x="258" y="389"/>
      <point x="298" y="433"/>
      <point x="350" y="433" type="curve" smooth="yes"/>
      <point x="402" y="433"/>
      <point x="442" y="389"/>
      <point x="442" y="300" type="curve" smooth="yes"/>
      <point x="442" y="211"/>
      <point x="402" y="167"/>
    </contour>
  </outline>
</glyph>
<glyph name="zhe-cy.loclBGR" format="2">
  <advance width="990"/>
  <outline>
    <contour>
      <point x="724" y="0" type="line"/>
      <point x="991" y="0" type="line"/>
      <point x="792" y="357" type="line"/>
      <point x="610" y="251" type="line"/>
    </contour>
    <contour>
      <point x="541" y="182" type="line"/>
      <point x="744" y="182" type="line"/>
      <point x="744" y="355" type="line"/>
      <point x="541" y="355" type="line"/>
    </contour>
    <contour>
      <point x="815" y="249" type="line"/>
      <point x="980" y="547" type="line"/>
      <point x="742" y="547" type="line"/>
      <point x="603" y="269" type="line"/>
    </contour>
    <contour>
      <point x="265" y="0" type="line"/>
      <point x="379" y="251" type="line"/>
      <point x="197" y="357" type="line"/>
      <point x="-1" y="0" type="line"/>
    </contour>
    <contour>
      <point x="607" y="0" type="line"/>
      <point x="607" y="742" type="line"/>
      <point x="384" y="742" type="line"/>
      <point x="384" y="0" type="line"/>
    </contour>
    <contour>
      <point x="449" y="182" type="line"/>
      <point x="449" y="355" type="line"/>
      <point x="246" y="355" type="line"/>
      <point x="246" y="182" type="line"/>
    </contour>
    <contour>
      <point x="174" y="249" type="line"/>
      <point x="385" y="269" type="line"/>
      <point x="248" y="547" type="line"/>
      <point x="10" y="547" type="line"/>
    </contour>
  </outline>
</glyph>
